ISO-10303-21;
HEADER;
FILE_DESCRIPTION (( 'STEP AP214' ),
    '1' );
FILE_NAME ('Part_2--Cover.STEP',
    '2026-08-27T02:34:48',
    ( '' ),
    ( '' ),
    'SwSTEP 2.0',
    'SolidWorks 2021',
    '' );
FILE_SCHEMA (( 'AUTOMOTIVE_DESIGN' ));
ENDSEC;

DATA;
#1 = EDGE_CURVE ( 'NONE', #763, #180, #845, .T. ) ;
#2 = FACE_OUTER_BOUND ( 'NONE', #727, .T. ) ;
#3 = DIRECTION ( 'NONE',  ( 0.000000000000000000, 1.000000000000000000, 0.000000000000000000 ) ) ;
#4 = CARTESIAN_POINT ( 'NONE',  ( 0.000000000000000000, 0.5000000000000004441, 0.000000000000000000 ) ) ;
#5 = VERTEX_POINT ( 'NONE', #327 ) ;
#6 = EDGE_CURVE ( 'NONE', #813, #938, #546, .T. ) ;
#7 = DIRECTION ( 'NONE',  ( 0.000000000000000000, 0.000000000000000000, -1.000000000000000000 ) ) ;
#8 = CIRCLE ( 'NONE', #352, 8.000000000000000000 ) ;
#9 = DIRECTION ( 'NONE',  ( 1.000000000000000000, -8.673617379884048291E-16, 9.115745035929406798E-64 ) ) ;
#10 = AXIS2_PLACEMENT_3D ( 'NONE', #263, #712, #278 ) ;
#11 = CARTESIAN_POINT ( 'NONE',  ( 0.000000000000000000, 2.000000000000001776, 0.000000000000000000 ) ) ;
#12 = AXIS2_PLACEMENT_3D ( 'NONE', #932, #929, #862 ) ;
#13 = STYLED_ITEM ( 'NONE', ( #819 ), #779 ) ;
#14 = EDGE_CURVE ( 'NONE', #716, #201, #158, .T. ) ;
#15 = VERTEX_POINT ( 'NONE', #321 ) ;
#16 = ORIENTED_EDGE ( 'NONE', *, *, #914, .F. ) ;
#17 = CARTESIAN_POINT ( 'NONE',  ( 0.000000000000000000, 0.5000000000000004441, 0.000000000000000000 ) ) ;
#18 = LINE ( 'NONE', #638, #553 ) ;
#19 = FACE_OUTER_BOUND ( 'NONE', #258, .T. ) ;
#20 = EDGE_CURVE ( 'NONE', #201, #716, #372, .T. ) ;
#21 = DIRECTION ( 'NONE',  ( 0.000000000000000000, -1.000000000000000000, 0.000000000000000000 ) ) ;
#22 = ORIENTED_EDGE ( 'NONE', *, *, #68, .F. ) ;
#23 = ORIENTED_EDGE ( 'NONE', *, *, #612, .F. ) ;
#24 = LINE ( 'NONE', #35, #856 ) ;
#25 = VERTEX_POINT ( 'NONE', #780 ) ;
#26 = EDGE_LOOP ( 'NONE', ( #762, #892, #275, #349 ) ) ;
#27 = CARTESIAN_POINT ( 'NONE',  ( 2.500000000000005773, 1.500000000000001332, -15.00000000000001954 ) ) ;
#28 = DIRECTION ( 'NONE',  ( 0.000000000000000000, -1.000000000000000000, 0.000000000000000000 ) ) ;
#29 = FACE_OUTER_BOUND ( 'NONE', #134, .T. ) ;
#30 = CIRCLE ( 'NONE', #817, 37.00000000000000000 ) ;
#31 = VECTOR ( 'NONE', #496, 1000.000000000000000 ) ;
#32 = ORIENTED_EDGE ( 'NONE', *, *, #14, .F. ) ;
#33 = CIRCLE ( 'NONE', #513, 7.500000000000000000 ) ;
#34 = ORIENTED_EDGE ( 'NONE', *, *, #717, .T. ) ;
#35 = CARTESIAN_POINT ( 'NONE',  ( -2.500000000000007994, 0.000000000000000000, 7.071067811865486163 ) ) ;
#36 = FACE_OUTER_BOUND ( 'NONE', #793, .T. ) ;
#37 = ORIENTED_EDGE ( 'NONE', *, *, #97, .T. ) ;
#38 = CYLINDRICAL_SURFACE ( 'NONE', #611, 37.00000000000000000 ) ;
#39 = DIRECTION ( 'NONE',  ( -0.000000000000000000, 1.000000000000000000, -0.000000000000000000 ) ) ;
#40 = PLANE ( 'NONE',  #425 ) ;
#41 = EDGE_CURVE ( 'NONE', #633, #624, #610, .T. ) ;
#42 = ORIENTED_EDGE ( 'NONE', *, *, #733, .F. ) ;
#43 = DIRECTION ( 'NONE',  ( 0.000000000000000000, -1.000000000000000000, 0.000000000000000000 ) ) ;
#44 = EDGE_CURVE ( 'NONE', #559, #203, #364, .T. ) ;
#45 = VECTOR ( 'NONE', #282, 1000.000000000000000 ) ;
#46 = CIRCLE ( 'NONE', #375, 33.00000000000000711 ) ;
#47 = ORIENTED_EDGE ( 'NONE', *, *, #695, .T. ) ;
#48 = EDGE_CURVE ( 'NONE', #705, #653, #55, .T. ) ;
#49 = CIRCLE ( 'NONE', #666, 37.00000000000000000 ) ;
#50 = CYLINDRICAL_SURFACE ( 'NONE', #188, 0.6999999999999999556 ) ;
#51 = CARTESIAN_POINT ( 'NONE',  ( 0.000000000000000000, 0.000000000000000000, 0.000000000000000000 ) ) ;
#52 = EDGE_LOOP ( 'NONE', ( #414, #826, #452, #696, #334, #368, #264, #648 ) ) ;
#53 = ORIENTED_EDGE ( 'NONE', *, *, #842, .F. ) ;
#54 = LINE ( 'NONE', #602, #948 ) ;
#55 = LINE ( 'NONE', #272, #434 ) ;
#56 = CARTESIAN_POINT ( 'NONE',  ( 0.000000000000000000, 0.000000000000000000, -7.500000000000000000 ) ) ;
#57 = PRODUCT_DEFINITION_SHAPE ( 'NONE', 'NONE',  #832 ) ;
#58 = EDGE_LOOP ( 'NONE', ( #899, #32 ) ) ;
#59 = ORIENTED_EDGE ( 'NONE', *, *, #590, .F. ) ;
#60 = DIRECTION ( 'NONE',  ( 0.000000000000000000, 0.000000000000000000, -1.000000000000000000 ) ) ;
#61 = DIRECTION ( 'NONE',  ( -0.000000000000000000, 1.000000000000000000, -0.000000000000000000 ) ) ;
#62 = DIRECTION ( 'NONE',  ( 0.000000000000000000, 1.000000000000000000, 0.000000000000000000 ) ) ;
#63 = VERTEX_POINT ( 'NONE', #928 ) ;
#64 = VECTOR ( 'NONE', #483, 1000.000000000000000 ) ;
#65 = CARTESIAN_POINT ( 'NONE',  ( 0.000000000000000000, 1.000000000000000888, 0.000000000000000000 ) ) ;
#66 = AXIS2_PLACEMENT_3D ( 'NONE', #707, #692, #629 ) ;
#67 = AXIS2_PLACEMENT_3D ( 'NONE', #561, #699, #630 ) ;
#68 = EDGE_CURVE ( 'NONE', #99, #790, #816, .T. ) ;
#69 = EDGE_CURVE ( 'NONE', #790, #863, #663, .T. ) ;
#70 = ORIENTED_EDGE ( 'NONE', *, *, #612, .T. ) ;
#71 = CARTESIAN_POINT ( 'NONE',  ( 2.500000000000003997, 0.000000000000000000, -7.599342076785342570 ) ) ;
#72 = DIRECTION ( 'NONE',  ( 0.000000000000000000, 0.000000000000000000, -1.000000000000000000 ) ) ;
#73 = APPLICATION_PROTOCOL_DEFINITION ( 'draft international standard', 'automotive_design', 1998, #330 ) ;
#74 = CARTESIAN_POINT ( 'NONE',  ( 0.000000000000000000, 1.500000000000001332, 0.000000000000000000 ) ) ;
#75 =( NAMED_UNIT ( * ) PLANE_ANGLE_UNIT ( ) SI_UNIT ( $, .RADIAN. ) );
#76 = CARTESIAN_POINT ( 'NONE',  ( 0.000000000000000000, 1.299999999999995604, 0.000000000000000000 ) ) ;
#77 = ADVANCED_FACE ( 'NONE', ( #266 ), #118, .F. ) ;
#78 = ORIENTED_EDGE ( 'NONE', *, *, #69, .T. ) ;
#79 = CIRCLE ( 'NONE', #212, 36.50000000000000000 ) ;
#80 = VECTOR ( 'NONE', #658, 1000.000000000000000 ) ;
#81 = ORIENTED_EDGE ( 'NONE', *, *, #518, .F. ) ;
#82 = ORIENTED_EDGE ( 'NONE', *, *, #650, .F. ) ;
#83 = ORIENTED_EDGE ( 'NONE', *, *, #48, .F. ) ;
#84 = DIRECTION ( 'NONE',  ( 0.000000000000000000, 0.000000000000000000, -1.000000000000000000 ) ) ;
#85 = VERTEX_POINT ( 'NONE', #279 ) ;
#86 = ADVANCED_FACE ( 'NONE', ( #586 ), #50, .T. ) ;
#87 = EDGE_CURVE ( 'NONE', #487, #796, #943, .T. ) ;
#88 = CARTESIAN_POINT ( 'NONE',  ( -2.500000000000004885, 1.500000000000001332, -15.00000000000001954 ) ) ;
#89 = DIRECTION ( 'NONE',  ( 0.000000000000000000, 0.000000000000000000, -1.000000000000000000 ) ) ;
#90 = FACE_OUTER_BOUND ( 'NONE', #26, .T. ) ;
#91 = CARTESIAN_POINT ( 'NONE',  ( 0.000000000000000000, 1.000000000000014655, 0.000000000000000000 ) ) ;
#92 = AXIS2_PLACEMENT_3D ( 'NONE', #499, #384, #959 ) ;
#93 = VECTOR ( 'NONE', #731, 1000.000000000000000 ) ;
#94 = DIRECTION ( 'NONE',  ( 0.000000000000000000, -1.000000000000000000, 0.000000000000000000 ) ) ;
#95 = AXIS2_PLACEMENT_3D ( 'NONE', #11, #693, #322 ) ;
#96 = DIRECTION ( 'NONE',  ( 0.000000000000000000, -1.000000000000000000, 0.000000000000000000 ) ) ;
#97 = EDGE_CURVE ( 'NONE', #99, #502, #548, .T. ) ;
#98 = CARTESIAN_POINT ( 'NONE',  ( 0.000000000000000000, 0.000000000000000000, 0.000000000000000000 ) ) ;
#99 = VERTEX_POINT ( 'NONE', #515 ) ;
#100 = CARTESIAN_POINT ( 'NONE',  ( -2.500000000000004885, 0.5000000000000004441, -15.00000000000001954 ) ) ;
#101 = EDGE_LOOP ( 'NONE', ( #397, #689, #535, #311 ) ) ;
#102 = ORIENTED_EDGE ( 'NONE', *, *, #6, .F. ) ;
#103 = CARTESIAN_POINT ( 'NONE',  ( 0.000000000000000000, 0.5000000000000004441, -36.50000000000000000 ) ) ;
#104 = ORIENTED_EDGE ( 'NONE', *, *, #518, .T. ) ;
#105 = DIRECTION ( 'NONE',  ( 0.000000000000000000, 0.000000000000000000, -1.000000000000000000 ) ) ;
#106 = ORIENTED_EDGE ( 'NONE', *, *, #884, .F. ) ;
#107 = ORIENTED_EDGE ( 'NONE', *, *, #87, .F. ) ;
#108 = CARTESIAN_POINT ( 'NONE',  ( 0.000000000000000000, 1.500000000000001332, 0.000000000000000000 ) ) ;
#109 = LINE ( 'NONE', #703, #743 ) ;
#110 = CIRCLE ( 'NONE', #10, 8.000000000000000000 ) ;
#111 = CIRCLE ( 'NONE', #821, 8.000000000000000000 ) ;
#112 = ORIENTED_EDGE ( 'NONE', *, *, #500, .T. ) ;
#113 = CARTESIAN_POINT ( 'NONE',  ( 0.000000000000000000, 1.500000000000001332, -7.500000000000000000 ) ) ;
#114 = DIRECTION ( 'NONE',  ( 0.000000000000000000, -1.000000000000000000, 0.000000000000000000 ) ) ;
#115 = CARTESIAN_POINT ( 'NONE',  ( 37.00000000000000000, 0.000000000000000000, -3.009169851535451557E-33 ) ) ;
#116 = ORIENTED_EDGE ( 'NONE', *, *, #598, .T. ) ;
#117 = CARTESIAN_POINT ( 'NONE',  ( 2.500000000000004885, 0.5000000000000004441, -15.00000000000001954 ) ) ;
#118 = PLANE ( 'NONE',  #400 ) ;
#119 = EDGE_CURVE ( 'NONE', #653, #63, #805, .T. ) ;
#120 = LINE ( 'NONE', #642, #554 ) ;
#121 = DIRECTION ( 'NONE',  ( 0.000000000000000000, 0.000000000000000000, -1.000000000000000000 ) ) ;
#122 = ADVANCED_FACE ( 'NONE', ( #346 ), #569, .F. ) ;
#123 = ORIENTED_EDGE ( 'NONE', *, *, #802, .T. ) ;
#124 = DIRECTION ( 'NONE',  ( 0.000000000000000000, 0.000000000000000000, 1.000000000000000000 ) ) ;
#125 = DIRECTION ( 'NONE',  ( 0.000000000000000000, 0.000000000000000000, -1.000000000000000000 ) ) ;
#126 = DIRECTION ( 'NONE',  ( 0.000000000000000000, -1.000000000000000000, 0.000000000000000000 ) ) ;
#127 = EDGE_CURVE ( 'NONE', #790, #99, #855, .T. ) ;
#128 = AXIS2_PLACEMENT_3D ( 'NONE', #768, #625, #868 ) ;
#129 = ORIENTED_EDGE ( 'NONE', *, *, #97, .F. ) ;
#130 = DIRECTION ( 'NONE',  ( 0.000000000000000000, -1.000000000000000000, 0.000000000000000000 ) ) ;
#131 = AXIS2_PLACEMENT_3D ( 'NONE', #578, #216, #870 ) ;
#132 = AXIS2_PLACEMENT_3D ( 'NONE', #957, #394, #955 ) ;
#133 = DIRECTION ( 'NONE',  ( 0.000000000000000000, 0.000000000000000000, -1.000000000000000000 ) ) ;
#134 = EDGE_LOOP ( 'NONE', ( #361, #549, #112, #907 ) ) ;
#135 = CARTESIAN_POINT ( 'NONE',  ( 0.000000000000000000, 1.500000000000001332, 0.000000000000000000 ) ) ;
#136 = CARTESIAN_POINT ( 'NONE',  ( 2.500000000000005773, 0.000000000000000000, 7.599342076785342570 ) ) ;
#137 = VERTEX_POINT ( 'NONE', #960 ) ;
#138 = LINE ( 'NONE', #56, #80 ) ;
#139 = ORIENTED_EDGE ( 'NONE', *, *, #304, .T. ) ;
#140 = CARTESIAN_POINT ( 'NONE',  ( 0.000000000000000000, -29.69715421864641769, -23.38865313531815104 ) ) ;
#141 = EDGE_CURVE ( 'NONE', #559, #387, #8, .T. ) ;
#142 = SHAPE_DEFINITION_REPRESENTATION ( #57, #779 ) ;
#143 = DIRECTION ( 'NONE',  ( 0.000000000000000000, 0.5735764363510462704, 0.8191520442889916875 ) ) ;
#144 = EDGE_LOOP ( 'NONE', ( #865, #53 ) ) ;
#145 = CONICAL_SURFACE ( 'NONE', #508, 17.65764939443949189, 0.9599310885968810325 ) ;
#146 = DIRECTION ( 'NONE',  ( 0.000000000000000000, -1.000000000000000000, 0.000000000000000000 ) ) ;
#147 = CIRCLE ( 'NONE', #255, 7.500000000000000000 ) ;
#148 = AXIS2_PLACEMENT_3D ( 'NONE', #115, #795, #280 ) ;
#149 = DIRECTION ( 'NONE',  ( 0.000000000000000000, 0.000000000000000000, -1.000000000000000000 ) ) ;
#150 = PLANE ( 'NONE',  #276 ) ;
#151 = ORIENTED_EDGE ( 'NONE', *, *, #751, .T. ) ;
#152 = CARTESIAN_POINT ( 'NONE',  ( 0.000000000000000000, 0.000000000000000000, 0.000000000000000000 ) ) ;
#153 = CARTESIAN_POINT ( 'NONE',  ( 8.572527594031471957E-17, 1.299999999999995604, 0.6999999999999999556 ) ) ;
#154 = DIRECTION ( 'NONE',  ( 0.000000000000000000, -1.000000000000000000, 0.000000000000000000 ) ) ;
#155 = APPLICATION_PROTOCOL_DEFINITION ( 'draft international standard', 'automotive_design', 1998, #827 ) ;
#156 = ORIENTED_EDGE ( 'NONE', *, *, #803, .F. ) ;
#157 = CARTESIAN_POINT ( 'NONE',  ( -2.500000000000006661, 1.500000000000001332, -7.599342076785342570 ) ) ;
#158 = CIRCLE ( 'NONE', #419, 0.6999999999999999556 ) ;
#159 = VECTOR ( 'NONE', #927, 1000.000000000000000 ) ;
#160 = AXIS2_PLACEMENT_3D ( 'NONE', #428, #504, #207 ) ;
#161 = VECTOR ( 'NONE', #43, 1000.000000000000000 ) ;
#162 = VERTEX_POINT ( 'NONE', #103 ) ;
#163 = EDGE_CURVE ( 'NONE', #293, #686, #469, .T. ) ;
#164 = CARTESIAN_POINT ( 'NONE',  ( 2.500000000000007994, 0.5000000000000004441, -7.071067811865486163 ) ) ;
#165 = ORIENTED_EDGE ( 'NONE', *, *, #456, .F. ) ;
#166 = ORIENTED_EDGE ( 'NONE', *, *, #797, .F. ) ;
#167 = CARTESIAN_POINT ( 'NONE',  ( 0.000000000000000000, 1.500000000000001332, 0.000000000000000000 ) ) ;
#168 = DIRECTION ( 'NONE',  ( 0.000000000000000000, -1.000000000000000000, 0.000000000000000000 ) ) ;
#169 = ORIENTED_EDGE ( 'NONE', *, *, #757, .T. ) ;
#170 = CARTESIAN_POINT ( 'NONE',  ( 0.000000000000000000, 2.000000000000001776, 0.000000000000000000 ) ) ;
#171 = ORIENTED_EDGE ( 'NONE', *, *, #254, .F. ) ;
#172 = AXIS2_PLACEMENT_3D ( 'NONE', #4, #898, #235 ) ;
#173 = VECTOR ( 'NONE', #168, 1000.000000000000000 ) ;
#174 = ADVANCED_FACE ( 'NONE', ( #543 ), #538, .F. ) ;
#175 = FACE_OUTER_BOUND ( 'NONE', #52, .T. ) ;
#176 = AXIS2_PLACEMENT_3D ( 'NONE', #904, #956, #443 ) ;
#177 = CIRCLE ( 'NONE', #593, 8.000000000000000000 ) ;
#178 = ORIENTED_EDGE ( 'NONE', *, *, #530, .F. ) ;
#179 = FACE_OUTER_BOUND ( 'NONE', #687, .T. ) ;
#180 = VERTEX_POINT ( 'NONE', #867 ) ;
#181 = SURFACE_SIDE_STYLE ('',( #918 ) ) ;
#182 = DIRECTION ( 'NONE',  ( 0.000000000000000000, 0.000000000000000000, 1.000000000000000000 ) ) ;
#183 = ORIENTED_EDGE ( 'NONE', *, *, #455, .T. ) ;
#184 = DIRECTION ( 'NONE',  ( 0.000000000000000000, 1.000000000000000000, 0.000000000000000000 ) ) ;
#185 = LINE ( 'NONE', #100, #527 ) ;
#186 = ORIENTED_EDGE ( 'NONE', *, *, #637, .F. ) ;
#187 = VERTEX_POINT ( 'NONE', #113 ) ;
#188 = AXIS2_PLACEMENT_3D ( 'NONE', #732, #215, #714 ) ;
#189 = CARTESIAN_POINT ( 'NONE',  ( 4.469960816887838430E-15, 0.5000000000000004441, 36.50000000000000000 ) ) ;
#190 = DIRECTION ( 'NONE',  ( 0.000000000000000000, -1.000000000000000000, 0.000000000000000000 ) ) ;
#191 = TOROIDAL_SURFACE ( 'NONE', #741, 23.38865313531815104, 32.50000000000000000 ) ;
#192 = CIRCLE ( 'NONE', #95, 7.500000000000000000 ) ;
#193 = ORIENTED_EDGE ( 'NONE', *, *, #231, .T. ) ;
#194 = LINE ( 'NONE', #651, #701 ) ;
#195 = FACE_OUTER_BOUND ( 'NONE', #430, .T. ) ;
#196 = EDGE_LOOP ( 'NONE', ( #432, #470 ) ) ;
#197 = DIRECTION ( 'NONE',  ( 0.000000000000000000, 0.000000000000000000, -1.000000000000000000 ) ) ;
#198 = CYLINDRICAL_SURFACE ( 'NONE', #391, 0.6999999999999999556 ) ;
#199 = ADVANCED_FACE ( 'NONE', ( #271 ), #791, .F. ) ;
#200 = CARTESIAN_POINT ( 'NONE',  ( 9.797174393178825657E-16, 0.5000000000000004441, 8.000000000000000000 ) ) ;
#201 = VERTEX_POINT ( 'NONE', #718 ) ;
#202 = ORIENTED_EDGE ( 'NONE', *, *, #818, .T. ) ;
#203 = VERTEX_POINT ( 'NONE', #736 ) ;
#204 = DIRECTION ( 'NONE',  ( 8.673617379884048291E-16, 1.000000000000000000, -7.703719777548943412E-34 ) ) ;
#205 = ORIENTED_EDGE ( 'NONE', *, *, #563, .T. ) ;
#206 = DIRECTION ( 'NONE',  ( 0.000000000000000000, -1.000000000000000000, 0.000000000000000000 ) ) ;
#207 = DIRECTION ( 'NONE',  ( 0.000000000000000000, 0.000000000000000000, -1.000000000000000000 ) ) ;
#208 = ORIENTED_EDGE ( 'NONE', *, *, #609, .T. ) ;
#209 = ADVANCED_FACE ( 'NONE', ( #348 ), #379, .F. ) ;
#210 = ORIENTED_EDGE ( 'NONE', *, *, #772, .T. ) ;
#211 = AXIS2_PLACEMENT_3D ( 'NONE', #315, #616, #786 ) ;
#212 = AXIS2_PLACEMENT_3D ( 'NONE', #297, #600, #149 ) ;
#213 = DIRECTION ( 'NONE',  ( 0.000000000000000000, 0.000000000000000000, 1.000000000000000000 ) ) ;
#214 = CIRCLE ( 'NONE', #875, 17.65764939443949189 ) ;
#215 = DIRECTION ( 'NONE',  ( 0.000000000000000000, -1.000000000000000000, 0.000000000000000000 ) ) ;
#216 = DIRECTION ( 'NONE',  ( 0.000000000000000000, -1.000000000000000000, 0.000000000000000000 ) ) ;
#217 = ADVANCED_FACE ( 'NONE', ( #764 ), #145, .T. ) ;
#218 = DIRECTION ( 'NONE',  ( 0.000000000000000000, 0.000000000000000000, -1.000000000000000000 ) ) ;
#219 = ORIENTED_EDGE ( 'NONE', *, *, #734, .F. ) ;
#220 = CARTESIAN_POINT ( 'NONE',  ( 0.000000000000000000, 3.000000000000002665, 18.92814800674211284 ) ) ;
#221 = ORIENTED_EDGE ( 'NONE', *, *, #319, .T. ) ;
#222 = ORIENTED_EDGE ( 'NONE', *, *, #542, .T. ) ;
#223 = CARTESIAN_POINT ( 'NONE',  ( 4.531193156845206793E-15, 0.000000000000000000, 37.00000000000000000 ) ) ;
#224 = CARTESIAN_POINT ( 'NONE',  ( 2.500000000000003997, 0.5000000000000004441, -7.599342076785342570 ) ) ;
#225 = EDGE_CURVE ( 'NONE', #626, #813, #766, .T. ) ;
#226 = LINE ( 'NONE', #820, #159 ) ;
#227 = AXIS2_PLACEMENT_3D ( 'NONE', #170, #679, #310 ) ;
#228 = CARTESIAN_POINT ( 'NONE',  ( 2.230580742766138313E-15, 2.000000000000001776, -17.50000000000000000 ) ) ;
#229 = CIRCLE ( 'NONE', #354, 37.00000000000000000 ) ;
#230 = AXIS2_PLACEMENT_3D ( 'NONE', #942, #608, #672 ) ;
#231 = EDGE_CURVE ( 'NONE', #863, #502, #603, .T. ) ;
#232 = VERTEX_POINT ( 'NONE', #941 ) ;
#233 = FILL_AREA_STYLE ('',( #525 ) ) ;
#234 = PRODUCT ( 'Part_2--Cover', 'Part_2--Cover', '', ( #596 ) ) ;
#235 = DIRECTION ( 'NONE',  ( 0.000000000000000000, 0.000000000000000000, -1.000000000000000000 ) ) ;
#236 = VECTOR ( 'NONE', #729, 1000.000000000000000 ) ;
#237 = ORIENTED_EDGE ( 'NONE', *, *, #41, .T. ) ;
#238 = PRESENTATION_LAYER_ASSIGNMENT (  '', '', ( #665 ) ) ;
#239 = AXIS2_PLACEMENT_3D ( 'NONE', #302, #754, #388 ) ;
#240 = CARTESIAN_POINT ( 'NONE',  ( 2.251695467376833483E-15, 1.500000000000001332, -17.65764939443949189 ) ) ;
#241 = EDGE_CURVE ( 'NONE', #908, #660, #745, .T. ) ;
#242 = ORIENTED_EDGE ( 'NONE', *, *, #837, .F. ) ;
#243 = ORIENTED_EDGE ( 'NONE', *, *, #563, .F. ) ;
#244 = DIRECTION ( 'NONE',  ( 0.000000000000000000, 1.000000000000000000, 0.000000000000000000 ) ) ;
#245 = EDGE_LOOP ( 'NONE', ( #16, #81, #544, #926 ) ) ;
#246 = ORIENTED_EDGE ( 'NONE', *, *, #797, .T. ) ;
#247 = EDGE_CURVE ( 'NONE', #387, #137, #631, .T. ) ;
#248 = CARTESIAN_POINT ( 'NONE',  ( 0.000000000000000000, 1.500000000000001332, 17.65764939443949189 ) ) ;
#249 = DIRECTION ( 'NONE',  ( 0.000000000000000000, 0.000000000000000000, -1.000000000000000000 ) ) ;
#250 = DIRECTION ( 'NONE',  ( 0.000000000000000000, 0.000000000000000000, -1.000000000000000000 ) ) ;
#251 = CARTESIAN_POINT ( 'NONE',  ( 0.000000000000000000, 3.000000000000002665, 0.000000000000000000 ) ) ;
#252 = CARTESIAN_POINT ( 'NONE',  ( 0.000000000000000000, 0.5000000000000004441, 0.000000000000000000 ) ) ;
#253 = CARTESIAN_POINT ( 'NONE',  ( 0.000000000000000000, 0.5000000000000004441, 0.000000000000000000 ) ) ;
#254 = EDGE_CURVE ( 'NONE', #85, #137, #389, .T. ) ;
#255 = AXIS2_PLACEMENT_3D ( 'NONE', #290, #726, #809 ) ;
#256 = FACE_OUTER_BOUND ( 'NONE', #670, .T. ) ;
#257 = CIRCLE ( 'NONE', #800, 33.00000000000000711 ) ;
#258 = EDGE_LOOP ( 'NONE', ( #129, #681, #78, #193 ) ) ;
#259 = ORIENTED_EDGE ( 'NONE', *, *, #869, .F. ) ;
#260 = ORIENTED_EDGE ( 'NONE', *, *, #456, .T. ) ;
#261 = CARTESIAN_POINT ( 'NONE',  ( 0.000000000000000000, 1.000000000000000888, 0.000000000000000000 ) ) ;
#262 = CYLINDRICAL_SURFACE ( 'NONE', #604, 36.50000000000000000 ) ;
#263 = CARTESIAN_POINT ( 'NONE',  ( 0.000000000000000000, 0.5000000000000004441, 0.000000000000000000 ) ) ;
#264 = ORIENTED_EDGE ( 'NONE', *, *, #888, .T. ) ;
#265 = FACE_OUTER_BOUND ( 'NONE', #906, .T. ) ;
#266 = FACE_OUTER_BOUND ( 'NONE', #463, .T. ) ;
#267 = CYLINDRICAL_SURFACE ( 'NONE', #66, 8.000000000000000000 ) ;
#268 = LINE ( 'NONE', #715, #31 ) ;
#269 = EDGE_LOOP ( 'NONE', ( #22, #37, #691, #896 ) ) ;
#270 = ADVANCED_FACE ( 'NONE', ( #29 ), #262, .F. ) ;
#271 = FACE_OUTER_BOUND ( 'NONE', #517, .T. ) ;
#272 = CARTESIAN_POINT ( 'NONE',  ( 2.500000000000004885, 0.5000000000000004441, -15.00000000000001954 ) ) ;
#273 = DIRECTION ( 'NONE',  ( 0.000000000000000000, -1.000000000000000000, 0.000000000000000000 ) ) ;
#274 = CIRCLE ( 'NONE', #378, 7.500000000000000000 ) ;
#275 = ORIENTED_EDGE ( 'NONE', *, *, #6, .T. ) ;
#276 = AXIS2_PLACEMENT_3D ( 'NONE', #520, #3, #742 ) ;
#277 = ORIENTED_EDGE ( 'NONE', *, *, #556, .T. ) ;
#278 = DIRECTION ( 'NONE',  ( -4.440892098500626162E-15, 0.000000000000000000, -1.000000000000000000 ) ) ;
#279 = CARTESIAN_POINT ( 'NONE',  ( -2.500000000000007994, 0.5000000000000004441, 7.071067811865485275 ) ) ;
#280 = DIRECTION ( 'NONE',  ( 0.000000000000000000, 0.000000000000000000, -1.000000000000000000 ) ) ;
#281 = EDGE_LOOP ( 'NONE', ( #104, #222 ) ) ;
#282 = DIRECTION ( 'NONE',  ( 0.000000000000000000, -1.000000000000000000, 0.000000000000000000 ) ) ;
#283 = EDGE_CURVE ( 'NONE', #522, #441, #721, .T. ) ;
#284 = LINE ( 'NONE', #501, #161 ) ;
#285 = ORIENTED_EDGE ( 'NONE', *, *, #698, .T. ) ;
#286 = CARTESIAN_POINT ( 'NONE',  ( 9.184850993605147944E-16, 2.000000000000001776, 7.500000000000000000 ) ) ;
#287 = CARTESIAN_POINT ( 'NONE',  ( 0.000000000000000000, 2.520677711606689186, 0.000000000000000000 ) ) ;
#288 = PLANE ( 'NONE',  #677 ) ;
#289 = DIRECTION ( 'NONE',  ( 0.000000000000000000, -1.000000000000000000, 0.000000000000000000 ) ) ;
#290 = CARTESIAN_POINT ( 'NONE',  ( 0.000000000000000000, 1.500000000000001332, 0.000000000000000000 ) ) ;
#291 = ORIENTED_EDGE ( 'NONE', *, *, #905, .T. ) ;
#292 = AXIS2_PLACEMENT_3D ( 'NONE', #76, #342, #486 ) ;
#293 = VERTEX_POINT ( 'NONE', #157 ) ;
#294 = DIRECTION ( 'NONE',  ( 0.000000000000000000, -1.000000000000000000, 0.000000000000000000 ) ) ;
#295 = CIRCLE ( 'NONE', #636, 17.50000000000000000 ) ;
#296 = COLOUR_RGB ( '',0.5019607843137254832, 1.000000000000000000, 0.5019607843137254832 ) ;
#297 = CARTESIAN_POINT ( 'NONE',  ( 0.000000000000000000, 0.000000000000000000, 0.000000000000000000 ) ) ;
#298 =( NAMED_UNIT ( * ) SI_UNIT ( $, .STERADIAN. ) SOLID_ANGLE_UNIT ( ) );
#299 = ORIENTED_EDGE ( 'NONE', *, *, #20, .T. ) ;
#300 = ORIENTED_EDGE ( 'NONE', *, *, #225, .F. ) ;
#301 = DIRECTION ( 'NONE',  ( 0.000000000000000000, -1.000000000000000000, 0.000000000000000000 ) ) ;
#302 = CARTESIAN_POINT ( 'NONE',  ( 0.000000000000000000, 0.000000000000000000, 0.000000000000000000 ) ) ;
#303 = CARTESIAN_POINT ( 'NONE',  ( 2.500000000000008882, 1.500000000000001332, -7.071067811865486163 ) ) ;
#304 = EDGE_CURVE ( 'NONE', #686, #137, #417, .T. ) ;
#305 = VECTOR ( 'NONE', #490, 1000.000000000000000 ) ;
#306 = LINE ( 'NONE', #804, #93 ) ;
#307 = TOROIDAL_SURFACE ( 'NONE', #589, 23.38865313531815104, 33.00000000000000711 ) ;
#308 = ADVANCED_FACE ( 'NONE', ( #925 ), #307, .T. ) ;
#309 = ORIENTED_EDGE ( 'NONE', *, *, #530, .T. ) ;
#310 = DIRECTION ( 'NONE',  ( 0.000000000000000000, 0.000000000000000000, -1.000000000000000000 ) ) ;
#311 = ORIENTED_EDGE ( 'NONE', *, *, #641, .T. ) ;
#312 = DIRECTION ( 'NONE',  ( 0.000000000000000000, 0.000000000000000000, 1.000000000000000000 ) ) ;
#313 = ADVANCED_FACE ( 'NONE', ( #19 ), #191, .F. ) ;
#314 = VECTOR ( 'NONE', #39, 1000.000000000000000 ) ;
#315 = CARTESIAN_POINT ( 'NONE',  ( -2.500000000000004885, 0.5000000000000004441, -15.00000000000001954 ) ) ;
#316 = CONICAL_SURFACE ( 'NONE', #374, 18.92814800674211284, 0.9599310885968801443 ) ;
#317 = CARTESIAN_POINT ( 'NONE',  ( 0.000000000000000000, 3.000000000000002665, 18.92814800674211284 ) ) ;
#318 = CARTESIAN_POINT ( 'NONE',  ( 0.000000000000000000, 2.000000000000001776, 0.000000000000000000 ) ) ;
#319 = EDGE_CURVE ( 'NONE', #828, #705, #634, .T. ) ;
#320 = EDGE_LOOP ( 'NONE', ( #82, #116, #878, #178 ) ) ;
#321 = CARTESIAN_POINT ( 'NONE',  ( -2.500000000000007994, 1.500000000000001332, 7.071067811865486163 ) ) ;
#322 = DIRECTION ( 'NONE',  ( 0.000000000000000000, 0.000000000000000000, -1.000000000000000000 ) ) ;
#323 = DIRECTION ( 'NONE',  ( 0.000000000000000000, 0.000000000000000000, -1.000000000000000000 ) ) ;
#324 = CARTESIAN_POINT ( 'NONE',  ( -2.500000000000004885, 0.5000000000000004441, -15.00000000000001954 ) ) ;
#325 = PRODUCT_DEFINITION_CONTEXT ( 'detailed design', #827, 'design' ) ;
#326 = VERTEX_POINT ( 'NONE', #622 ) ;
#327 = CARTESIAN_POINT ( 'NONE',  ( 0.000000000000000000, 2.000000000000001776, -7.500000000000000000 ) ) ;
#328 = EDGE_CURVE ( 'NONE', #828, #605, #339, .T. ) ;
#329 = ORIENTED_EDGE ( 'NONE', *, *, #931, .T. ) ;
#330 = APPLICATION_CONTEXT ( 'automotive_design' ) ;
#331 = DIRECTION ( 'NONE',  ( 0.000000000000000000, 0.000000000000000000, 1.000000000000000000 ) ) ;
#332 = CARTESIAN_POINT ( 'NONE',  ( 0.000000000000000000, 0.5000000000000004441, 0.000000000000000000 ) ) ;
#333 = ORIENTED_EDGE ( 'NONE', *, *, #119, .T. ) ;
#334 = ORIENTED_EDGE ( 'NONE', *, *, #534, .F. ) ;
#335 = AXIS2_PLACEMENT_3D ( 'NONE', #252, #552, #775 ) ;
#336 = FILL_AREA_STYLE_COLOUR ( '', #494 ) ;
#337 = AXIS2_PLACEMENT_3D ( 'NONE', #529, #154, #445 ) ;
#338 = FACE_OUTER_BOUND ( 'NONE', #597, .T. ) ;
#339 = LINE ( 'NONE', #864, #799 ) ;
#340 = CIRCLE ( 'NONE', #575, 8.000000000000000000 ) ;
#341 = UNCERTAINTY_MEASURE_WITH_UNIT (LENGTH_MEASURE( 1.000000000000000082E-05 ), #894, 'distance_accuracy_value', 'NONE');
#342 = DIRECTION ( 'NONE',  ( 0.000000000000000000, -1.000000000000000000, 0.000000000000000000 ) ) ;
#343 = EDGE_CURVE ( 'NONE', #605, #187, #147, .T. ) ;
#344 = LINE ( 'NONE', #765, #479 ) ;
#345 = EDGE_CURVE ( 'NONE', #162, #522, #226, .T. ) ;
#346 = FACE_OUTER_BOUND ( 'NONE', #639, .T. ) ;
#347 = DIRECTION ( 'NONE',  ( 0.000000000000000000, 1.000000000000000000, 0.000000000000000000 ) ) ;
#348 = FACE_OUTER_BOUND ( 'NONE', #101, .T. ) ;
#349 = ORIENTED_EDGE ( 'NONE', *, *, #698, .F. ) ;
#350 = ORIENTED_EDGE ( 'NONE', *, *, #343, .F. ) ;
#351 = CARTESIAN_POINT ( 'NONE',  ( 0.000000000000000000, 1.299999999999995604, 0.000000000000000000 ) ) ;
#352 = AXIS2_PLACEMENT_3D ( 'NONE', #673, #61, #410 ) ;
#353 = CARTESIAN_POINT ( 'NONE',  ( 0.000000000000000000, 1.500000000000001332, 17.65764939443949189 ) ) ;
#354 = AXIS2_PLACEMENT_3D ( 'NONE', #811, #595, #662 ) ;
#355 = AXIS2_PLACEMENT_3D ( 'NONE', #135, #301, #72 ) ;
#356 = ORIENTED_EDGE ( 'NONE', *, *, #953, .T. ) ;
#357 = CARTESIAN_POINT ( 'NONE',  ( 0.000000000000000000, 0.000000000000000000, -8.000000000000000000 ) ) ;
#358 = EDGE_LOOP ( 'NONE', ( #576, #277, #697, #329, #581, #402, #418, #151, #123, #659 ) ) ;
#359 = CARTESIAN_POINT ( 'NONE',  ( 0.000000000000000000, 0.5000000000000004441, 0.000000000000000000 ) ) ;
#360 = CARTESIAN_POINT ( 'NONE',  ( 0.000000000000000000, 1.000000000000014655, 0.000000000000000000 ) ) ;
#361 = ORIENTED_EDGE ( 'NONE', *, *, #542, .F. ) ;
#362 = ORIENTED_EDGE ( 'NONE', *, *, #818, .F. ) ;
#363 = PLANE ( 'NONE',  #829 ) ;
#364 = LINE ( 'NONE', #357, #236 ) ;
#365 = ADVANCED_FACE ( 'NONE', ( #90 ), #316, .F. ) ;
#366 = DIRECTION ( 'NONE',  ( 0.000000000000000000, -1.000000000000000000, 0.000000000000000000 ) ) ;
#367 = CARTESIAN_POINT ( 'NONE',  ( 0.000000000000000000, 1.500000000000001332, 0.000000000000000000 ) ) ;
#368 = ORIENTED_EDGE ( 'NONE', *, *, #241, .F. ) ;
#369 = DIRECTION ( 'NONE',  ( 0.000000000000000000, -1.000000000000000000, 0.000000000000000000 ) ) ;
#370 = ADVANCED_FACE ( 'NONE', ( #265 ), #38, .T. ) ;
#371 = DIRECTION ( 'NONE',  ( 0.000000000000000000, 0.000000000000000000, 1.000000000000000000 ) ) ;
#372 = CIRCLE ( 'NONE', #335, 0.6999999999999999556 ) ;
#373 = ORIENTED_EDGE ( 'NONE', *, *, #41, .F. ) ;
#374 = AXIS2_PLACEMENT_3D ( 'NONE', #251, #690, #477 ) ;
#375 = AXIS2_PLACEMENT_3D ( 'NONE', #140, #377, #213 ) ;
#376 = DIRECTION ( 'NONE',  ( 0.000000000000000000, 0.000000000000000000, -1.000000000000000000 ) ) ;
#377 = DIRECTION ( 'NONE',  ( -1.000000000000000000, -0.000000000000000000, -0.000000000000000000 ) ) ;
#378 = AXIS2_PLACEMENT_3D ( 'NONE', #771, #851, #422 ) ;
#379 = PLANE ( 'NONE',  #476 ) ;
#380 = ADVANCED_FACE ( 'NONE', ( #179 ), #767, .T. ) ;
#381 = ORIENTED_EDGE ( 'NONE', *, *, #708, .T. ) ;
#382 = ADVANCED_FACE ( 'NONE', ( #761 ), #710, .T. ) ;
#383 = FACE_OUTER_BOUND ( 'NONE', #759, .T. ) ;
#384 = DIRECTION ( 'NONE',  ( 0.000000000000000000, -1.000000000000000000, 0.000000000000000000 ) ) ;
#385 = FACE_BOUND ( 'NONE', #753, .T. ) ;
#386 = DIRECTION ( 'NONE',  ( 1.003171929053524623E-16, 0.5735764363510462704, -0.8191520442889916875 ) ) ;
#387 = VERTEX_POINT ( 'NONE', #579 ) ;
#388 = DIRECTION ( 'NONE',  ( 1.000000000000000000, 0.000000000000000000, 0.000000000000000000 ) ) ;
#389 = CIRCLE ( 'NONE', #632, 7.500000000000000000 ) ;
#390 = DIRECTION ( 'NONE',  ( 0.000000000000000000, -1.000000000000000000, 0.000000000000000000 ) ) ;
#391 = AXIS2_PLACEMENT_3D ( 'NONE', #359, #206, #125 ) ;
#392 = ADVANCED_FACE ( 'NONE', ( #572 ), #198, .T. ) ;
#393 = TOROIDAL_SURFACE ( 'NONE', #921, 23.38865313531815104, 32.50000000000000000 ) ;
#394 = DIRECTION ( 'NONE',  ( -0.000000000000000000, 1.000000000000000000, -0.000000000000000000 ) ) ;
#395 = CARTESIAN_POINT ( 'NONE',  ( -2.500000000000004885, 1.500000000000001332, -15.00000000000001954 ) ) ;
#396 = PRODUCT_RELATED_PRODUCT_CATEGORY ( 'part', '', ( #234 ) ) ;
#397 = ORIENTED_EDGE ( 'NONE', *, *, #328, .T. ) ;
#398 = EDGE_CURVE ( 'NONE', #847, #232, #194, .T. ) ;
#399 = CARTESIAN_POINT ( 'NONE',  ( 8.572527594031471957E-17, 0.5000000000000004441, 0.6999999999999999556 ) ) ;
#400 = AXIS2_PLACEMENT_3D ( 'NONE', #853, #433, #719 ) ;
#401 = CIRCLE ( 'NONE', #920, 37.00000000000000000 ) ;
#402 = ORIENTED_EDGE ( 'NONE', *, *, #643, .F. ) ;
#403 = CONICAL_SURFACE ( 'NONE', #176, 17.65764939443949189, 0.9599310885968810325 ) ;
#404 = MECHANICAL_DESIGN_GEOMETRIC_PRESENTATION_REPRESENTATION (  '', ( #13 ), #724 ) ;
#405 = CARTESIAN_POINT ( 'NONE',  ( 4.531193156845206793E-15, 1.000000000000000888, 37.00000000000000000 ) ) ;
#406 = FACE_OUTER_BOUND ( 'NONE', #281, .T. ) ;
#407 = ADVANCED_FACE ( 'NONE', ( #944 ), #288, .T. ) ;
#408 = DIRECTION ( 'NONE',  ( 0.000000000000000000, 0.000000000000000000, -1.000000000000000000 ) ) ;
#409 = EDGE_LOOP ( 'NONE', ( #285, #901, #498, #186 ) ) ;
#410 = DIRECTION ( 'NONE',  ( 0.000000000000000000, 0.000000000000000000, -1.000000000000000000 ) ) ;
#411 = VERTEX_POINT ( 'NONE', #405 ) ;
#412 = CYLINDRICAL_SURFACE ( 'NONE', #935, 8.000000000000000000 ) ;
#413 = DIRECTION ( 'NONE',  ( 0.000000000000000000, -1.000000000000000000, 0.000000000000000000 ) ) ;
#414 = ORIENTED_EDGE ( 'NONE', *, *, #455, .F. ) ;
#415 = VERTEX_POINT ( 'NONE', #555 ) ;
#416 = DIRECTION ( 'NONE',  ( 0.000000000000000000, -1.000000000000000000, 0.000000000000000000 ) ) ;
#417 = LINE ( 'NONE', #852, #173 ) ;
#418 = ORIENTED_EDGE ( 'NONE', *, *, #708, .F. ) ;
#419 = AXIS2_PLACEMENT_3D ( 'NONE', #17, #184, #917 ) ;
#420 = FILL_AREA_STYLE ('',( #336 ) ) ;
#421 = VECTOR ( 'NONE', #728, 1000.000000000000000 ) ;
#422 = DIRECTION ( 'NONE',  ( 0.000000000000000000, 0.000000000000000000, 1.000000000000000000 ) ) ;
#423 = VECTOR ( 'NONE', #777, 1000.000000000000000 ) ;
#424 = DIRECTION ( 'NONE',  ( 0.000000000000000000, 0.000000000000000000, -1.000000000000000000 ) ) ;
#425 = AXIS2_PLACEMENT_3D ( 'NONE', #451, #347, #792 ) ;
#426 = ORIENTED_EDGE ( 'NONE', *, *, #44, .T. ) ;
#427 = CARTESIAN_POINT ( 'NONE',  ( 2.864283919853507895E-15, -29.69715421864641769, 23.38865313531815104 ) ) ;
#428 = CARTESIAN_POINT ( 'NONE',  ( 0.000000000000000000, 0.5000000000000004441, 0.000000000000000000 ) ) ;
#429 = DIRECTION ( 'NONE',  ( -0.000000000000000000, 1.000000000000000000, -0.000000000000000000 ) ) ;
#430 = EDGE_LOOP ( 'NONE', ( #439, #70 ) ) ;
#431 = CARTESIAN_POINT ( 'NONE',  ( 0.000000000000000000, 1.500000000000001332, 0.000000000000000000 ) ) ;
#432 = ORIENTED_EDGE ( 'NONE', *, *, #283, .F. ) ;
#433 = DIRECTION ( 'NONE',  ( -1.000000000000000000, 0.000000000000000000, 0.000000000000000000 ) ) ;
#434 = VECTOR ( 'NONE', #794, 1000.000000000000000 ) ;
#435 = DIRECTION ( 'NONE',  ( 0.000000000000000000, 0.000000000000000000, -1.000000000000000000 ) ) ;
#436 = MANIFOLD_SOLID_BREP ( 'Revolve2', #782 ) ;
#437 = AXIS2_PLACEMENT_3D ( 'NONE', #911, #564, #89 ) ;
#438 = AXIS2_PLACEMENT_3D ( 'NONE', #167, #244, #182 ) ;
#439 = ORIENTED_EDGE ( 'NONE', *, *, #442, .T. ) ;
#440 = AXIS2_PLACEMENT_3D ( 'NONE', #360, #808, #858 ) ;
#441 = VERTEX_POINT ( 'NONE', #449 ) ;
#442 = EDGE_CURVE ( 'NONE', #796, #447, #401, .T. ) ;
#443 = DIRECTION ( 'NONE',  ( 0.000000000000000000, 0.000000000000000000, 1.000000000000000000 ) ) ;
#444 = DIRECTION ( 'NONE',  ( 0.000000000000000000, -1.000000000000000000, 0.000000000000000000 ) ) ;
#445 = DIRECTION ( 'NONE',  ( 0.000000000000000000, 0.000000000000000000, -1.000000000000000000 ) ) ;
#446 = DIRECTION ( 'NONE',  ( 0.000000000000000000, 0.000000000000000000, -1.000000000000000000 ) ) ;
#447 = VERTEX_POINT ( 'NONE', #223 ) ;
#448 = ORIENTED_EDGE ( 'NONE', *, *, #48, .T. ) ;
#449 = CARTESIAN_POINT ( 'NONE',  ( 4.469960816887838430E-15, 0.000000000000000000, 36.50000000000000000 ) ) ;
#450 = CARTESIAN_POINT ( 'NONE',  ( 0.000000000000000000, 2.000000000000001776, 0.000000000000000000 ) ) ;
#451 = CARTESIAN_POINT ( 'NONE',  ( 3.061616997868389797E-17, 0.5000000000000004441, 9.568656960443621616E-38 ) ) ;
#452 = ORIENTED_EDGE ( 'NONE', *, *, #905, .F. ) ;
#453 = CARTESIAN_POINT ( 'NONE',  ( 0.000000000000000000, 0.000000000000000000, 0.000000000000000000 ) ) ;
#454 = DIRECTION ( 'NONE',  ( 1.003171929053523884E-16, 0.5735764363510470476, -0.8191520442889911324 ) ) ;
#455 = EDGE_CURVE ( 'NONE', #847, #653, #511, .T. ) ;
#456 = EDGE_CURVE ( 'NONE', #624, #633, #755, .T. ) ;
#457 =( NAMED_UNIT ( * ) PLANE_ANGLE_UNIT ( ) SI_UNIT ( $, .RADIAN. ) );
#458 = AXIS2_PLACEMENT_3D ( 'NONE', #752, #390, #250 ) ;
#459 = ORIENTED_EDGE ( 'NONE', *, *, #1, .F. ) ;
#460 = VECTOR ( 'NONE', #369, 1000.000000000000000 ) ;
#461 = LINE ( 'NONE', #514, #460 ) ;
#462 = CARTESIAN_POINT ( 'NONE',  ( 4.335807390997395713E-15, 0.5000000000000004441, 35.40455414586600114 ) ) ;
#463 = EDGE_LOOP ( 'NONE', ( #139, #834, #774, #540 ) ) ;
#464 = DIRECTION ( 'NONE',  ( 0.000000000000000000, 1.000000000000000000, 0.000000000000000000 ) ) ;
#465 = FACE_OUTER_BOUND ( 'NONE', #711, .T. ) ;
#466 = ORIENTED_EDGE ( 'NONE', *, *, #757, .F. ) ;
#467 = AXIS2_PLACEMENT_3D ( 'NONE', #152, #601, #84 ) ;
#468 = CIRCLE ( 'NONE', #355, 17.65764939443949189 ) ;
#469 = LINE ( 'NONE', #395, #570 ) ;
#470 = ORIENTED_EDGE ( 'NONE', *, *, #500, .F. ) ;
#471 = DIRECTION ( 'NONE',  ( 0.000000000000000000, -1.000000000000000000, 0.000000000000000000 ) ) ;
#472 = ORIENTED_EDGE ( 'NONE', *, *, #247, .T. ) ;
#473 = DIRECTION ( 'NONE',  ( 8.673617379884048291E-16, 1.000000000000000000, -7.703719777548943412E-34 ) ) ;
#474 = DIRECTION ( 'NONE',  ( 0.000000000000000000, 0.000000000000000000, 1.000000000000000000 ) ) ;
#475 = CARTESIAN_POINT ( 'NONE',  ( 0.000000000000000000, 3.000000000000002665, 0.000000000000000000 ) ) ;
#476 = AXIS2_PLACEMENT_3D ( 'NONE', #720, #9, #473 ) ;
#477 = DIRECTION ( 'NONE',  ( 0.000000000000000000, 0.000000000000000000, 1.000000000000000000 ) ) ;
#478 = VERTEX_POINT ( 'NONE', #783 ) ;
#479 = VECTOR ( 'NONE', #331, 1000.000000000000000 ) ;
#480 = DIRECTION ( 'NONE',  ( 0.000000000000000000, 0.000000000000000000, -1.000000000000000000 ) ) ;
#481 = ADVANCED_FACE ( 'NONE', ( #36 ), #839, .T. ) ;
#482 = ORIENTED_EDGE ( 'NONE', *, *, #141, .T. ) ;
#483 = DIRECTION ( 'NONE',  ( 0.000000000000000000, 0.5735764363510470476, 0.8191520442889911324 ) ) ;
#484 = DIRECTION ( 'NONE',  ( 0.000000000000000000, 0.000000000000000000, -1.000000000000000000 ) ) ;
#485 = ORIENTED_EDGE ( 'NONE', *, *, #861, .T. ) ;
#486 = DIRECTION ( 'NONE',  ( 0.000000000000000000, 0.000000000000000000, -1.000000000000000000 ) ) ;
#487 = VERTEX_POINT ( 'NONE', #674 ) ;
#488 = ORIENTED_EDGE ( 'NONE', *, *, #643, .T. ) ;
#489 = DIRECTION ( 'NONE',  ( 0.000000000000000000, 0.000000000000000000, 1.000000000000000000 ) ) ;
#490 = DIRECTION ( 'NONE',  ( 0.000000000000000000, -1.000000000000000000, 0.000000000000000000 ) ) ;
#491 = ADVANCED_FACE ( 'NONE', ( #2 ), #267, .T. ) ;
#492 = DIRECTION ( 'NONE',  ( -1.000000000000000000, -0.000000000000000000, -0.000000000000000000 ) ) ;
#493 = DIRECTION ( 'NONE',  ( 0.000000000000000000, 0.000000000000000000, 1.000000000000000000 ) ) ;
#494 = COLOUR_RGB ( '',0.5019607843137254832, 1.000000000000000000, 0.5019607843137254832 ) ;
#495 = CONICAL_SURFACE ( 'NONE', #67, 18.92814800674211284, 0.9599310885968801443 ) ;
#496 = DIRECTION ( 'NONE',  ( -0.000000000000000000, 1.000000000000000000, -0.000000000000000000 ) ) ;
#497 = DIRECTION ( 'NONE',  ( 0.000000000000000000, -1.000000000000000000, 0.000000000000000000 ) ) ;
#498 = ORIENTED_EDGE ( 'NONE', *, *, #912, .F. ) ;
#499 = CARTESIAN_POINT ( 'NONE',  ( 0.000000000000000000, 0.000000000000000000, 0.000000000000000000 ) ) ;
#500 = EDGE_CURVE ( 'NONE', #441, #522, #79, .T. ) ;
#501 = CARTESIAN_POINT ( 'NONE',  ( 4.469960816887838430E-15, 0.000000000000000000, 36.50000000000000000 ) ) ;
#502 = VERTEX_POINT ( 'NONE', #462 ) ;
#503 = DIRECTION ( 'NONE',  ( 0.000000000000000000, 0.000000000000000000, -1.000000000000000000 ) ) ;
#504 = DIRECTION ( 'NONE',  ( 0.000000000000000000, -1.000000000000000000, 0.000000000000000000 ) ) ;
#505 = ORIENTED_EDGE ( 'NONE', *, *, #650, .T. ) ;
#506 = ORIENTED_EDGE ( 'NONE', *, *, #598, .F. ) ;
#507 = CARTESIAN_POINT ( 'NONE',  ( -2.500000000000007105, 1.500000000000001332, -7.071067811865486163 ) ) ;
#508 = AXIS2_PLACEMENT_3D ( 'NONE', #108, #566, #493 ) ;
#509 = PLANE ( 'NONE',  #148 ) ;
#510 = ORIENTED_EDGE ( 'NONE', *, *, #637, .T. ) ;
#511 = CIRCLE ( 'NONE', #551, 8.000000000000000000 ) ;
#512 = VECTOR ( 'NONE', #519, 1000.000000000000000 ) ;
#513 = AXIS2_PLACEMENT_3D ( 'NONE', #367, #62, #371 ) ;
#514 = CARTESIAN_POINT ( 'NONE',  ( 9.184850993605147944E-16, 0.000000000000000000, 7.500000000000000000 ) ) ;
#515 = CARTESIAN_POINT ( 'NONE',  ( 3.338379972307205579E-15, 2.520677711606689186, 19.11532823379668855 ) ) ;
#516 = FACE_BOUND ( 'NONE', #196, .T. ) ;
#517 = EDGE_LOOP ( 'NONE', ( #702, #448, #333, #737 ) ) ;
#518 = EDGE_CURVE ( 'NONE', #162, #882, #934, .T. ) ;
#519 = DIRECTION ( 'NONE',  ( 0.000000000000000000, 0.000000000000000000, 1.000000000000000000 ) ) ;
#520 = CARTESIAN_POINT ( 'NONE',  ( 7.500000000000009770, 2.000000000000001776, -3.009169851535451557E-33 ) ) ;
#521 = EDGE_LOOP ( 'NONE', ( #165, #373 ) ) ;
#522 = VERTEX_POINT ( 'NONE', #964 ) ;
#523 = FACE_BOUND ( 'NONE', #358, .T. ) ;
#524 =( NAMED_UNIT ( * ) SI_UNIT ( $, .STERADIAN. ) SOLID_ANGLE_UNIT ( ) );
#525 = FILL_AREA_STYLE_COLOUR ( '', #296 ) ;
#526 = VECTOR ( 'NONE', #143, 1000.000000000000000 ) ;
#527 = VECTOR ( 'NONE', #489, 1000.000000000000000 ) ;
#528 = FACE_BOUND ( 'NONE', #582, .T. ) ;
#529 = CARTESIAN_POINT ( 'NONE',  ( 0.000000000000000000, 0.5000000000000004441, 0.000000000000000000 ) ) ;
#530 = EDGE_CURVE ( 'NONE', #922, #99, #895, .T. ) ;
#531 = SURFACE_SIDE_STYLE ('',( #669 ) ) ;
#532 = VERTEX_POINT ( 'NONE', #778 ) ;
#533 =( LENGTH_UNIT ( ) NAMED_UNIT ( * ) SI_UNIT ( .MILLI., .METRE. ) );
#534 = EDGE_CURVE ( 'NONE', #660, #559, #110, .T. ) ;
#535 = ORIENTED_EDGE ( 'NONE', *, *, #241, .T. ) ;
#536 = AXIS2_PLACEMENT_3D ( 'NONE', #946, #464, #585 ) ;
#537 = CIRCLE ( 'NONE', #230, 8.000000000000000000 ) ;
#538 = PLANE ( 'NONE',  #211 ) ;
#539 = ORIENTED_EDGE ( 'NONE', *, *, #695, .F. ) ;
#540 = ORIENTED_EDGE ( 'NONE', *, *, #163, .T. ) ;
#541 = PLANE ( 'NONE',  #722 ) ;
#542 = EDGE_CURVE ( 'NONE', #882, #162, #664, .T. ) ;
#543 = FACE_OUTER_BOUND ( 'NONE', #725, .T. ) ;
#544 = ORIENTED_EDGE ( 'NONE', *, *, #345, .T. ) ;
#545 = DIRECTION ( 'NONE',  ( 0.000000000000000000, -1.000000000000000000, 0.000000000000000000 ) ) ;
#546 = LINE ( 'NONE', #317, #64 ) ;
#547 = DIRECTION ( 'NONE',  ( 0.000000000000000000, 0.000000000000000000, 1.000000000000000000 ) ) ;
#548 = CIRCLE ( 'NONE', #740, 32.50000000000000000 ) ;
#549 = ORIENTED_EDGE ( 'NONE', *, *, #914, .T. ) ;
#550 = DIRECTION ( 'NONE',  ( 0.000000000000000000, 0.000000000000000000, -1.000000000000000000 ) ) ;
#551 = AXIS2_PLACEMENT_3D ( 'NONE', #823, #606, #746 ) ;
#552 = DIRECTION ( 'NONE',  ( 0.000000000000000000, 1.000000000000000000, 0.000000000000000000 ) ) ;
#553 = VECTOR ( 'NONE', #416, 1000.000000000000000 ) ;
#554 = VECTOR ( 'NONE', #289, 1000.000000000000000 ) ;
#555 = CARTESIAN_POINT ( 'NONE',  ( 9.184850993605147944E-16, 1.500000000000001332, 7.500000000000000000 ) ) ;
#556 = EDGE_CURVE ( 'NONE', #908, #605, #580, .T. ) ;
#557 = CARTESIAN_POINT ( 'NONE',  ( 0.000000000000000000, 0.000000000000000000, 0.000000000000000000 ) ) ;
#558 = CARTESIAN_POINT ( 'NONE',  ( 0.000000000000000000, 0.5000000000000004441, 0.000000000000000000 ) ) ;
#559 = VERTEX_POINT ( 'NONE', #885 ) ;
#560 = ORIENTED_EDGE ( 'NONE', *, *, #803, .T. ) ;
#561 = CARTESIAN_POINT ( 'NONE',  ( 0.000000000000000000, 3.000000000000002665, 0.000000000000000000 ) ) ;
#562 = CARTESIAN_POINT ( 'NONE',  ( 0.000000000000000000, 0.000000000000000000, 0.000000000000000000 ) ) ;
#563 = EDGE_CURVE ( 'NONE', #592, #415, #461, .T. ) ;
#564 = DIRECTION ( 'NONE',  ( 0.000000000000000000, -1.000000000000000000, 0.000000000000000000 ) ) ;
#565 = UNCERTAINTY_MEASURE_WITH_UNIT (LENGTH_MEASURE( 1.000000000000000082E-05 ), #903, 'distance_accuracy_value', 'NONE');
#566 = DIRECTION ( 'NONE',  ( 0.000000000000000000, 1.000000000000000000, 0.000000000000000000 ) ) ;
#567 = CARTESIAN_POINT ( 'NONE',  ( 0.000000000000000000, -29.69715421864641769, 0.000000000000000000 ) ) ;
#568 = DIRECTION ( 'NONE',  ( 0.000000000000000000, -1.000000000000000000, 0.000000000000000000 ) ) ;
#569 = CYLINDRICAL_SURFACE ( 'NONE', #92, 7.500000000000000000 ) ;
#570 = VECTOR ( 'NONE', #312, 1000.000000000000000 ) ;
#571 = AXIS2_PLACEMENT_3D ( 'NONE', #332, #190, #323 ) ;
#572 = FACE_OUTER_BOUND ( 'NONE', #841, .T. ) ;
#573 = AXIS2_PLACEMENT_3D ( 'NONE', #475, #760, #688 ) ;
#574 = CARTESIAN_POINT ( 'NONE',  ( 2.500000000000004885, 1.500000000000001332, -7.599342076785342570 ) ) ;
#575 = AXIS2_PLACEMENT_3D ( 'NONE', #431, #788, #435 ) ;
#576 = ORIENTED_EDGE ( 'NONE', *, *, #888, .F. ) ;
#577 = EDGE_CURVE ( 'NONE', #411, #487, #30, .T. ) ;
#578 = CARTESIAN_POINT ( 'NONE',  ( 0.000000000000000000, 3.000000000000002665, 0.000000000000000000 ) ) ;
#579 = CARTESIAN_POINT ( 'NONE',  ( -2.500000000000006661, 0.5000000000000004441, -7.599342076785342570 ) ) ;
#580 = LINE ( 'NONE', #27, #421 ) ;
#581 = ORIENTED_EDGE ( 'NONE', *, *, #163, .F. ) ;
#582 = EDGE_LOOP ( 'NONE', ( #940, #962 ) ) ;
#583 = CARTESIAN_POINT ( 'NONE',  ( 2.864283919853507895E-15, -29.69715421864641769, 23.38865313531815104 ) ) ;
#584 = ORIENTED_EDGE ( 'NONE', *, *, #772, .F. ) ;
#585 = DIRECTION ( 'NONE',  ( 0.000000000000000000, 0.000000000000000000, 1.000000000000000000 ) ) ;
#586 = FACE_OUTER_BOUND ( 'NONE', #806, .T. ) ;
#587 = AXIS2_PLACEMENT_3D ( 'NONE', #860, #444, #197 ) ;
#588 = CYLINDRICAL_SURFACE ( 'NONE', #12, 7.500000000000000000 ) ;
#589 = AXIS2_PLACEMENT_3D ( 'NONE', #704, #413, #910 ) ;
#590 = EDGE_CURVE ( 'NONE', #411, #447, #306, .T. ) ;
#591 = AXIS2_PLACEMENT_3D ( 'NONE', #318, #471, #484 ) ;
#592 = VERTEX_POINT ( 'NONE', #286 ) ;
#593 = AXIS2_PLACEMENT_3D ( 'NONE', #51, #273, #133 ) ;
#594 = ORIENTED_EDGE ( 'NONE', *, *, #861, .F. ) ;
#595 = DIRECTION ( 'NONE',  ( 0.000000000000000000, -1.000000000000000000, 0.000000000000000000 ) ) ;
#596 = PRODUCT_CONTEXT ( 'NONE', #330, 'mechanical' ) ;
#597 = EDGE_LOOP ( 'NONE', ( #916, #208, #594, #102 ) ) ;
#598 = EDGE_CURVE ( 'NONE', #744, #790, #739, .T. ) ;
#599 = CARTESIAN_POINT ( 'NONE',  ( 2.500000000000006661, 0.5000000000000004441, 7.599342076785342570 ) ) ;
#600 = DIRECTION ( 'NONE',  ( 0.000000000000000000, -1.000000000000000000, 0.000000000000000000 ) ) ;
#601 = DIRECTION ( 'NONE',  ( 0.000000000000000000, -1.000000000000000000, 0.000000000000000000 ) ) ;
#602 = CARTESIAN_POINT ( 'NONE',  ( 2.318029587024407983E-15, 3.000000000000002665, -18.92814800674211284 ) ) ;
#603 = CIRCLE ( 'NONE', #172, 35.40455414586600114 ) ;
#604 = AXIS2_PLACEMENT_3D ( 'NONE', #562, #497, #424 ) ;
#605 = VERTEX_POINT ( 'NONE', #303 ) ;
#606 = DIRECTION ( 'NONE',  ( -0.000000000000000000, 1.000000000000000000, -0.000000000000000000 ) ) ;
#607 = EDGE_LOOP ( 'NONE', ( #657, #505 ) ) ;
#608 = DIRECTION ( 'NONE',  ( 0.000000000000000000, -1.000000000000000000, 0.000000000000000000 ) ) ;
#609 = EDGE_CURVE ( 'NONE', #626, #532, #54, .T. ) ;
#610 = CIRCLE ( 'NONE', #587, 0.6999999999999999556 ) ;
#611 = AXIS2_PLACEMENT_3D ( 'NONE', #98, #21, #550 ) ;
#612 = EDGE_CURVE ( 'NONE', #447, #796, #229, .T. ) ;
#613 = ORIENTED_EDGE ( 'NONE', *, *, #254, .T. ) ;
#614 = CIRCLE ( 'NONE', #591, 7.500000000000000000 ) ;
#615 =( GEOMETRIC_REPRESENTATION_CONTEXT ( 3 ) GLOBAL_UNCERTAINTY_ASSIGNED_CONTEXT ( ( #341 ) ) GLOBAL_UNIT_ASSIGNED_CONTEXT ( ( #894, #890, #812 ) ) REPRESENTATION_CONTEXT ( 'NONE', 'WORKASPACE' ) );
#616 = DIRECTION ( 'NONE',  ( -1.000000000000000000, 0.000000000000000000, 0.000000000000000000 ) ) ;
#617 = ORIENTED_EDGE ( 'NONE', *, *, #398, .F. ) ;
#618 = CARTESIAN_POINT ( 'NONE',  ( 0.000000000000000000, 2.000000000000001776, 17.50000000000000000 ) ) ;
#619 = ORIENTED_EDGE ( 'NONE', *, *, #68, .T. ) ;
#620 = ORIENTED_EDGE ( 'NONE', *, *, #734, .T. ) ;
#621 = FACE_BOUND ( 'NONE', #144, .T. ) ;
#622 = CARTESIAN_POINT ( 'NONE',  ( -2.500000000000003997, 1.500000000000001332, 7.599342076785342570 ) ) ;
#623 = DIRECTION ( 'NONE',  ( 0.000000000000000000, 0.000000000000000000, 1.000000000000000000 ) ) ;
#624 = VERTEX_POINT ( 'NONE', #883 ) ;
#625 = DIRECTION ( 'NONE',  ( 0.000000000000000000, -1.000000000000000000, 0.000000000000000000 ) ) ;
#626 = VERTEX_POINT ( 'NONE', #228 ) ;
#627 = ORIENTED_EDGE ( 'NONE', *, *, #590, .T. ) ;
#628 = ADVANCED_FACE ( 'NONE', ( #528, #675 ), #824, .T. ) ;
#629 = DIRECTION ( 'NONE',  ( 0.000000000000000000, 0.000000000000000000, -1.000000000000000000 ) ) ;
#630 = DIRECTION ( 'NONE',  ( 0.000000000000000000, 0.000000000000000000, 1.000000000000000000 ) ) ;
#631 = LINE ( 'NONE', #324, #961 ) ;
#632 = AXIS2_PLACEMENT_3D ( 'NONE', #558, #568, #773 ) ;
#633 = VERTEX_POINT ( 'NONE', #153 ) ;
#634 = CIRCLE ( 'NONE', #571, 7.500000000000000000 ) ;
#635 = ORIENTED_EDGE ( 'NONE', *, *, #141, .F. ) ;
#636 = AXIS2_PLACEMENT_3D ( 'NONE', #450, #880, #60 ) ;
#637 = EDGE_CURVE ( 'NONE', #532, #180, #46, .T. ) ;
#638 = CARTESIAN_POINT ( 'NONE',  ( -2.500000000000003997, 0.000000000000000000, 7.599342076785342570 ) ) ;
#639 = EDGE_LOOP ( 'NONE', ( #166, #205, #859, #362, #613, #933, #770, #106 ) ) ;
#640 = DIRECTION ( 'NONE',  ( 0.000000000000000000, -1.000000000000000000, 0.000000000000000000 ) ) ;
#641 = EDGE_CURVE ( 'NONE', #660, #828, #668, .T. ) ;
#642 = CARTESIAN_POINT ( 'NONE',  ( 2.500000000000006217, 0.000000000000000000, 7.071067811865486163 ) ) ;
#643 = EDGE_CURVE ( 'NONE', #326, #293, #537, .T. ) ;
#644 = ORIENTED_EDGE ( 'NONE', *, *, #442, .F. ) ;
#645 = EDGE_CURVE ( 'NONE', #922, #744, #214, .T. ) ;
#646 = VECTOR ( 'NONE', #386, 1000.000000000000000 ) ;
#647 = CYLINDRICAL_SURFACE ( 'NONE', #877, 36.50000000000000000 ) ;
#648 = ORIENTED_EDGE ( 'NONE', *, *, #119, .F. ) ;
#649 = ORIENTED_EDGE ( 'NONE', *, *, #884, .T. ) ;
#650 = EDGE_CURVE ( 'NONE', #744, #922, #468, .T. ) ;
#651 = CARTESIAN_POINT ( 'NONE',  ( 9.797174393178825657E-16, 0.000000000000000000, 8.000000000000000000 ) ) ;
#652 = DIRECTION ( 'NONE',  ( 0.000000000000000000, -1.000000000000000000, 0.000000000000000000 ) ) ;
#653 = VERTEX_POINT ( 'NONE', #599 ) ;
#654 = CARTESIAN_POINT ( 'NONE',  ( 2.162438381136652310E-15, 1.500000000000001332, -17.65764939443949189 ) ) ;
#655 = CARTESIAN_POINT ( 'NONE',  ( 0.000000000000000000, -29.69715421864641769, -23.38865313531815104 ) ) ;
#656 = EDGE_CURVE ( 'NONE', #813, #626, #295, .T. ) ;
#657 = ORIENTED_EDGE ( 'NONE', *, *, #645, .T. ) ;
#658 = DIRECTION ( 'NONE',  ( 0.000000000000000000, -1.000000000000000000, 0.000000000000000000 ) ) ;
#659 = ORIENTED_EDGE ( 'NONE', *, *, #825, .T. ) ;
#660 = VERTEX_POINT ( 'NONE', #224 ) ;
#661 = DIRECTION ( 'NONE',  ( 0.000000000000000000, -1.000000000000000000, 0.000000000000000000 ) ) ;
#662 = DIRECTION ( 'NONE',  ( 0.000000000000000000, 0.000000000000000000, -1.000000000000000000 ) ) ;
#663 = CIRCLE ( 'NONE', #900, 32.50000000000000000 ) ;
#664 = CIRCLE ( 'NONE', #902, 36.50000000000000000 ) ;
#665 = STYLED_ITEM ( 'NONE', ( #871 ), #436 ) ;
#666 = AXIS2_PLACEMENT_3D ( 'NONE', #261, #545, #685 ) ;
#667 = EDGE_LOOP ( 'NONE', ( #291, #47 ) ) ;
#668 = LINE ( 'NONE', #750, #512 ) ;
#669 = SURFACE_STYLE_FILL_AREA ( #233 ) ;
#670 = EDGE_LOOP ( 'NONE', ( #243, #466, #649, #350, #952, #221, #887, #694 ) ) ;
#671 = ADVANCED_FACE ( 'NONE', ( #523, #815 ), #363, .T. ) ;
#672 = DIRECTION ( 'NONE',  ( 0.000000000000000000, 0.000000000000000000, -1.000000000000000000 ) ) ;
#673 = CARTESIAN_POINT ( 'NONE',  ( 0.000000000000000000, 0.5000000000000004441, 0.000000000000000000 ) ) ;
#674 = CARTESIAN_POINT ( 'NONE',  ( 0.000000000000000000, 1.000000000000000888, -37.00000000000000000 ) ) ;
#675 = FACE_OUTER_BOUND ( 'NONE', #840, .T. ) ;
#676 = AXIS2_PLACEMENT_3D ( 'NONE', #117, #713, #204 ) ;
#677 = AXIS2_PLACEMENT_3D ( 'NONE', #351, #936, #474 ) ;
#678 = CIRCLE ( 'NONE', #438, 7.500000000000000000 ) ;
#679 = DIRECTION ( 'NONE',  ( 0.000000000000000000, -1.000000000000000000, 0.000000000000000000 ) ) ;
#680 = EDGE_LOOP ( 'NONE', ( #171, #210, #356, #183, #83, #881, #684, #810, #482, #472 ) ) ;
#681 = ORIENTED_EDGE ( 'NONE', *, *, #127, .F. ) ;
#682 = ADVANCED_FACE ( 'NONE', ( #383 ), #403, .T. ) ;
#683 = UNCERTAINTY_MEASURE_WITH_UNIT (LENGTH_MEASURE( 1.000000000000000082E-05 ), #533, 'distance_accuracy_value', 'NONE');
#684 = ORIENTED_EDGE ( 'NONE', *, *, #641, .F. ) ;
#685 = DIRECTION ( 'NONE',  ( 0.000000000000000000, 0.000000000000000000, -1.000000000000000000 ) ) ;
#686 = VERTEX_POINT ( 'NONE', #507 ) ;
#687 = EDGE_LOOP ( 'NONE', ( #259, #485, #510, #459 ) ) ;
#688 = DIRECTION ( 'NONE',  ( 0.000000000000000000, 0.000000000000000000, -1.000000000000000000 ) ) ;
#689 = ORIENTED_EDGE ( 'NONE', *, *, #556, .F. ) ;
#690 = DIRECTION ( 'NONE',  ( 0.000000000000000000, 1.000000000000000000, 0.000000000000000000 ) ) ;
#691 = ORIENTED_EDGE ( 'NONE', *, *, #842, .T. ) ;
#692 = DIRECTION ( 'NONE',  ( 0.000000000000000000, -1.000000000000000000, 0.000000000000000000 ) ) ;
#693 = DIRECTION ( 'NONE',  ( 0.000000000000000000, -1.000000000000000000, 0.000000000000000000 ) ) ;
#694 = ORIENTED_EDGE ( 'NONE', *, *, #802, .F. ) ;
#695 = EDGE_CURVE ( 'NONE', #232, #203, #111, .T. ) ;
#696 = ORIENTED_EDGE ( 'NONE', *, *, #44, .F. ) ;
#697 = ORIENTED_EDGE ( 'NONE', *, *, #343, .T. ) ;
#698 = EDGE_CURVE ( 'NONE', #532, #938, #756, .T. ) ;
#699 = DIRECTION ( 'NONE',  ( 0.000000000000000000, 1.000000000000000000, 0.000000000000000000 ) ) ;
#700 = CARTESIAN_POINT ( 'NONE',  ( 3.061616997868389797E-17, 0.000000000000000000, 9.568656960443621616E-38 ) ) ;
#701 = VECTOR ( 'NONE', #366, 1000.000000000000000 ) ;
#702 = ORIENTED_EDGE ( 'NONE', *, *, #897, .T. ) ;
#703 = CARTESIAN_POINT ( 'NONE',  ( 0.000000000000000000, 0.5000000000000004441, -0.6999999999999999556 ) ) ;
#704 = CARTESIAN_POINT ( 'NONE',  ( 0.000000000000000000, -29.69715421864641769, 0.000000000000000000 ) ) ;
#705 = VERTEX_POINT ( 'NONE', #844 ) ;
#706 = DIRECTION ( 'NONE',  ( 1.000000000000000000, 0.000000000000000000, -1.224646799147353207E-16 ) ) ;
#707 = CARTESIAN_POINT ( 'NONE',  ( 0.000000000000000000, 0.000000000000000000, 0.000000000000000000 ) ) ;
#708 = EDGE_CURVE ( 'NONE', #15, #326, #924, .T. ) ;
#709 = FACE_BOUND ( 'NONE', #58, .T. ) ;
#710 = PLANE ( 'NONE',  #889 ) ;
#711 = EDGE_LOOP ( 'NONE', ( #913, #300 ) ) ;
#712 = DIRECTION ( 'NONE',  ( -0.000000000000000000, 1.000000000000000000, -0.000000000000000000 ) ) ;
#713 = DIRECTION ( 'NONE',  ( 1.000000000000000000, -8.673617379884048291E-16, 9.115745035929406798E-64 ) ) ;
#714 = DIRECTION ( 'NONE',  ( 0.000000000000000000, 0.000000000000000000, -1.000000000000000000 ) ) ;
#715 = CARTESIAN_POINT ( 'NONE',  ( -2.500000000000006661, 0.000000000000000000, -7.599342076785342570 ) ) ;
#716 = VERTEX_POINT ( 'NONE', #915 ) ;
#717 = EDGE_CURVE ( 'NONE', #633, #716, #909, .T. ) ;
#718 = CARTESIAN_POINT ( 'NONE',  ( 0.000000000000000000, 0.5000000000000004441, -0.6999999999999999556 ) ) ;
#719 = DIRECTION ( 'NONE',  ( 0.000000000000000000, 0.000000000000000000, 1.000000000000000000 ) ) ;
#720 = CARTESIAN_POINT ( 'NONE',  ( 2.500000000000004885, 0.5000000000000004441, -15.00000000000001954 ) ) ;
#721 = CIRCLE ( 'NONE', #467, 36.50000000000000000 ) ;
#722 = AXIS2_PLACEMENT_3D ( 'NONE', #919, #640, #249 ) ;
#723 = FACE_OUTER_BOUND ( 'NONE', #680, .T. ) ;
#724 =( GEOMETRIC_REPRESENTATION_CONTEXT ( 3 ) GLOBAL_UNCERTAINTY_ASSIGNED_CONTEXT ( ( #683 ) ) GLOBAL_UNIT_ASSIGNED_CONTEXT ( ( #533, #457, #298 ) ) REPRESENTATION_CONTEXT ( 'NONE', 'WORKASPACE' ) );
#725 = EDGE_LOOP ( 'NONE', ( #202, #381, #620, #584 ) ) ;
#726 = DIRECTION ( 'NONE',  ( 0.000000000000000000, 1.000000000000000000, 0.000000000000000000 ) ) ;
#727 = EDGE_LOOP ( 'NONE', ( #617, #785, #219, #488, #242, #635, #426, #539 ) ) ;
#728 = DIRECTION ( 'NONE',  ( 0.000000000000000000, 0.000000000000000000, 1.000000000000000000 ) ) ;
#729 = DIRECTION ( 'NONE',  ( 0.000000000000000000, -1.000000000000000000, 0.000000000000000000 ) ) ;
#730 = CARTESIAN_POINT ( 'NONE',  ( 0.000000000000000000, -29.69715421864641769, 0.000000000000000000 ) ) ;
#731 = DIRECTION ( 'NONE',  ( 0.000000000000000000, -1.000000000000000000, 0.000000000000000000 ) ) ;
#732 = CARTESIAN_POINT ( 'NONE',  ( 0.000000000000000000, 0.5000000000000004441, 0.000000000000000000 ) ) ;
#733 = EDGE_CURVE ( 'NONE', #487, #411, #49, .T. ) ;
#734 = EDGE_CURVE ( 'NONE', #326, #478, #18, .T. ) ;
#735 = FACE_OUTER_BOUND ( 'NONE', #245, .T. ) ;
#736 = CARTESIAN_POINT ( 'NONE',  ( 0.000000000000000000, 0.000000000000000000, -8.000000000000000000 ) ) ;
#737 = ORIENTED_EDGE ( 'NONE', *, *, #825, .F. ) ;
#738 = ORIENTED_EDGE ( 'NONE', *, *, #87, .T. ) ;
#739 = LINE ( 'NONE', #654, #646 ) ;
#740 = AXIS2_PLACEMENT_3D ( 'NONE', #427, #706, #873 ) ;
#741 = AXIS2_PLACEMENT_3D ( 'NONE', #567, #96, #408 ) ;
#742 = DIRECTION ( 'NONE',  ( 0.000000000000000000, 0.000000000000000000, 1.000000000000000000 ) ) ;
#743 = VECTOR ( 'NONE', #94, 1000.000000000000000 ) ;
#744 = VERTEX_POINT ( 'NONE', #240 ) ;
#745 = LINE ( 'NONE', #71, #305 ) ;
#746 = DIRECTION ( 'NONE',  ( 0.000000000000000000, 0.000000000000000000, -1.000000000000000000 ) ) ;
#747 = DIRECTION ( 'NONE',  ( 0.000000000000000000, 0.000000000000000000, -1.000000000000000000 ) ) ;
#748 = ADVANCED_FACE ( 'NONE', ( #338 ), #495, .F. ) ;
#749 = ADVANCED_FACE ( 'NONE', ( #175 ), #412, .T. ) ;
#750 = CARTESIAN_POINT ( 'NONE',  ( 2.500000000000004885, 0.5000000000000004441, -15.00000000000001954 ) ) ;
#751 = EDGE_CURVE ( 'NONE', #15, #415, #274, .T. ) ;
#752 = CARTESIAN_POINT ( 'NONE',  ( 0.000000000000000000, 2.520677711606689186, 0.000000000000000000 ) ) ;
#753 = EDGE_LOOP ( 'NONE', ( #169, #246 ) ) ;
#754 = DIRECTION ( 'NONE',  ( 0.000000000000000000, 0.000000000000000000, 1.000000000000000000 ) ) ;
#755 = CIRCLE ( 'NONE', #292, 0.6999999999999999556 ) ;
#756 = CIRCLE ( 'NONE', #573, 18.92814800674211284 ) ;
#757 = EDGE_CURVE ( 'NONE', #5, #592, #614, .T. ) ;
#758 = ORIENTED_EDGE ( 'NONE', *, *, #577, .F. ) ;
#759 = EDGE_LOOP ( 'NONE', ( #506, #849, #309, #619 ) ) ;
#760 = DIRECTION ( 'NONE',  ( 0.000000000000000000, -1.000000000000000000, 0.000000000000000000 ) ) ;
#761 = FACE_OUTER_BOUND ( 'NONE', #667, .T. ) ;
#762 = ORIENTED_EDGE ( 'NONE', *, *, #609, .F. ) ;
#763 = VERTEX_POINT ( 'NONE', #848 ) ;
#764 = FACE_OUTER_BOUND ( 'NONE', #320, .T. ) ;
#765 = CARTESIAN_POINT ( 'NONE',  ( 2.500000000000005773, 1.500000000000001332, -15.00000000000001954 ) ) ;
#766 = CIRCLE ( 'NONE', #227, 17.50000000000000000 ) ;
#767 = TOROIDAL_SURFACE ( 'NONE', #437, 23.38865313531815104, 33.00000000000000711 ) ;
#768 = CARTESIAN_POINT ( 'NONE',  ( 0.000000000000000000, 0.000000000000000000, 0.000000000000000000 ) ) ;
#769 = ORIENTED_EDGE ( 'NONE', *, *, #14, .T. ) ;
#770 = ORIENTED_EDGE ( 'NONE', *, *, #931, .F. ) ;
#771 = CARTESIAN_POINT ( 'NONE',  ( 0.000000000000000000, 1.500000000000001332, 0.000000000000000000 ) ) ;
#772 = EDGE_CURVE ( 'NONE', #85, #478, #185, .T. ) ;
#773 = DIRECTION ( 'NONE',  ( 0.000000000000000000, 0.000000000000000000, -1.000000000000000000 ) ) ;
#774 = ORIENTED_EDGE ( 'NONE', *, *, #837, .T. ) ;
#775 = DIRECTION ( 'NONE',  ( 0.000000000000000000, 0.000000000000000000, 1.000000000000000000 ) ) ;
#776 = DIRECTION ( 'NONE',  ( 0.000000000000000000, -1.000000000000000000, 0.000000000000000000 ) ) ;
#777 = DIRECTION ( 'NONE',  ( 0.000000000000000000, -1.000000000000000000, 0.000000000000000000 ) ) ;
#778 = CARTESIAN_POINT ( 'NONE',  ( 2.318029587024407983E-15, 3.000000000000002665, -18.92814800674211284 ) ) ;
#779 = ADVANCED_BREP_SHAPE_REPRESENTATION ( 'Part_2--Cover', ( #436, #239 ), #615 ) ;
#780 = CARTESIAN_POINT ( 'NONE',  ( 2.500000000000007994, 1.500000000000001332, 7.071067811865486163 ) ) ;
#781 = CARTESIAN_POINT ( 'NONE',  ( 0.000000000000000000, 2.520677711606689186, -19.11532823379668855 ) ) ;
#782 = CLOSED_SHELL ( 'NONE', ( #392, #749, #217, #879, #270, #481, #308, #748, #122, #893, #833, #951, #365, #380, #628, #370, #843, #930, #830, #313, #682, #671, #491, #382, #174, #199, #77, #209, #407, #86 ) ) ;
#783 = CARTESIAN_POINT ( 'NONE',  ( -2.500000000000003997, 0.5000000000000004441, 7.599342076785340794 ) ) ;
#784 =( GEOMETRIC_REPRESENTATION_CONTEXT ( 3 ) GLOBAL_UNCERTAINTY_ASSIGNED_CONTEXT ( ( #565 ) ) GLOBAL_UNIT_ASSIGNED_CONTEXT ( ( #903, #75, #524 ) ) REPRESENTATION_CONTEXT ( 'NONE', 'WORKASPACE' ) );
#785 = ORIENTED_EDGE ( 'NONE', *, *, #953, .F. ) ;
#786 = DIRECTION ( 'NONE',  ( 0.000000000000000000, 0.000000000000000000, 1.000000000000000000 ) ) ;
#787 = CARTESIAN_POINT ( 'NONE',  ( 0.000000000000000000, 0.000000000000000000, -37.00000000000000000 ) ) ;
#788 = DIRECTION ( 'NONE',  ( 0.000000000000000000, -1.000000000000000000, 0.000000000000000000 ) ) ;
#789 = DIRECTION ( 'NONE',  ( 0.000000000000000000, -1.000000000000000000, 0.000000000000000000 ) ) ;
#790 = VERTEX_POINT ( 'NONE', #781 ) ;
#791 = PLANE ( 'NONE',  #676 ) ;
#792 = DIRECTION ( 'NONE',  ( 0.000000000000000000, 0.000000000000000000, 1.000000000000000000 ) ) ;
#793 = EDGE_LOOP ( 'NONE', ( #866, #627, #644, #107 ) ) ;
#794 = DIRECTION ( 'NONE',  ( 0.000000000000000000, 0.000000000000000000, 1.000000000000000000 ) ) ;
#795 = DIRECTION ( 'NONE',  ( 0.000000000000000000, -1.000000000000000000, 0.000000000000000000 ) ) ;
#796 = VERTEX_POINT ( 'NONE', #835 ) ;
#797 = EDGE_CURVE ( 'NONE', #592, #5, #192, .T. ) ;
#798 = CARTESIAN_POINT ( 'NONE',  ( 0.000000000000000000, 0.000000000000000000, 0.000000000000000000 ) ) ;
#799 = VECTOR ( 'NONE', #429, 1000.000000000000000 ) ;
#800 = AXIS2_PLACEMENT_3D ( 'NONE', #583, #939, #854 ) ;
#801 = FACE_OUTER_BOUND ( 'NONE', #269, .T. ) ;
#802 = EDGE_CURVE ( 'NONE', #415, #25, #678, .T. ) ;
#803 = EDGE_CURVE ( 'NONE', #624, #201, #109, .T. ) ;
#804 = CARTESIAN_POINT ( 'NONE',  ( 4.531193156845206793E-15, 0.000000000000000000, 37.00000000000000000 ) ) ;
#805 = LINE ( 'NONE', #136, #314 ) ;
#806 = EDGE_LOOP ( 'NONE', ( #836, #237, #560, #299 ) ) ;
#807 = DIRECTION ( 'NONE',  ( 0.000000000000000000, 0.000000000000000000, -1.000000000000000000 ) ) ;
#808 = DIRECTION ( 'NONE',  ( 0.000000000000000000, -1.000000000000000000, 0.000000000000000000 ) ) ;
#809 = DIRECTION ( 'NONE',  ( 0.000000000000000000, 0.000000000000000000, 1.000000000000000000 ) ) ;
#810 = ORIENTED_EDGE ( 'NONE', *, *, #534, .T. ) ;
#811 = CARTESIAN_POINT ( 'NONE',  ( 0.000000000000000000, 0.000000000000000000, 0.000000000000000000 ) ) ;
#812 =( NAMED_UNIT ( * ) SI_UNIT ( $, .STERADIAN. ) SOLID_ANGLE_UNIT ( ) );
#813 = VERTEX_POINT ( 'NONE', #618 ) ;
#814 = ORIENTED_EDGE ( 'NONE', *, *, #577, .T. ) ;
#815 = FACE_OUTER_BOUND ( 'NONE', #607, .T. ) ;
#816 = CIRCLE ( 'NONE', #947, 19.11532823379668855 ) ;
#817 = AXIS2_PLACEMENT_3D ( 'NONE', #65, #872, #218 ) ;
#818 = EDGE_CURVE ( 'NONE', #85, #15, #24, .T. ) ;
#819 = PRESENTATION_STYLE_ASSIGNMENT (( #949 ) ) ;
#820 = CARTESIAN_POINT ( 'NONE',  ( 0.000000000000000000, 0.000000000000000000, -36.50000000000000000 ) ) ;
#821 = AXIS2_PLACEMENT_3D ( 'NONE', #798, #130, #105 ) ;
#822 = CIRCLE ( 'NONE', #132, 8.000000000000000000 ) ;
#823 = CARTESIAN_POINT ( 'NONE',  ( 0.000000000000000000, 0.5000000000000004441, 0.000000000000000000 ) ) ;
#824 = PLANE ( 'NONE',  #536 ) ;
#825 = EDGE_CURVE ( 'NONE', #25, #63, #344, .T. ) ;
#826 = ORIENTED_EDGE ( 'NONE', *, *, #398, .T. ) ;
#827 = APPLICATION_CONTEXT ( 'automotive_design' ) ;
#828 = VERTEX_POINT ( 'NONE', #164 ) ;
#829 = AXIS2_PLACEMENT_3D ( 'NONE', #958, #146, #747 ) ;
#830 = ADVANCED_FACE ( 'NONE', ( #406, #621 ), #541, .T. ) ;
#831 = PRESENTATION_LAYER_ASSIGNMENT (  '', '', ( #13 ) ) ;
#832 = PRODUCT_DEFINITION ( 'UNKNOWN', '', #857, #325 ) ;
#833 = ADVANCED_FACE ( 'NONE', ( #256 ), #588, .F. ) ;
#834 = ORIENTED_EDGE ( 'NONE', *, *, #247, .F. ) ;
#835 = CARTESIAN_POINT ( 'NONE',  ( 0.000000000000000000, 0.000000000000000000, -37.00000000000000000 ) ) ;
#836 = ORIENTED_EDGE ( 'NONE', *, *, #717, .F. ) ;
#837 = EDGE_CURVE ( 'NONE', #387, #293, #268, .T. ) ;
#838 = DIRECTION ( 'NONE',  ( -0.000000000000000000, 1.000000000000000000, -0.000000000000000000 ) ) ;
#839 = CYLINDRICAL_SURFACE ( 'NONE', #128, 37.00000000000000000 ) ;
#840 = EDGE_LOOP ( 'NONE', ( #42, #758 ) ) ;
#841 = EDGE_LOOP ( 'NONE', ( #260, #34, #769, #156 ) ) ;
#842 = EDGE_CURVE ( 'NONE', #502, #863, #846, .T. ) ;
#843 = ADVANCED_FACE ( 'NONE', ( #195, #516 ), #509, .T. ) ;
#844 = CARTESIAN_POINT ( 'NONE',  ( 2.500000000000007105, 0.5000000000000004441, 7.071067811865486163 ) ) ;
#845 = CIRCLE ( 'NONE', #886, 35.50000000000000000 ) ;
#846 = CIRCLE ( 'NONE', #160, 35.40455414586600114 ) ;
#847 = VERTEX_POINT ( 'NONE', #200 ) ;
#848 = CARTESIAN_POINT ( 'NONE',  ( 4.347496136973101704E-15, 1.000000000000014655, 35.49999999999998579 ) ) ;
#849 = ORIENTED_EDGE ( 'NONE', *, *, #645, .F. ) ;
#850 = DIRECTION ( 'NONE',  ( 0.000000000000000000, -1.000000000000000000, 0.000000000000000000 ) ) ;
#851 = DIRECTION ( 'NONE',  ( 0.000000000000000000, 1.000000000000000000, 0.000000000000000000 ) ) ;
#852 = CARTESIAN_POINT ( 'NONE',  ( -2.500000000000007105, 0.000000000000000000, -7.071067811865486163 ) ) ;
#853 = CARTESIAN_POINT ( 'NONE',  ( -2.500000000000004885, 0.5000000000000004441, -15.00000000000001954 ) ) ;
#854 = DIRECTION ( 'NONE',  ( -1.224646799147353454E-16, 0.000000000000000000, -1.000000000000000000 ) ) ;
#855 = CIRCLE ( 'NONE', #458, 19.11532823379668855 ) ;
#856 = VECTOR ( 'NONE', #838, 1000.000000000000000 ) ;
#857 = PRODUCT_DEFINITION_FORMATION_WITH_SPECIFIED_SOURCE ( 'ANY', '', #234, .NOT_KNOWN. ) ;
#858 = DIRECTION ( 'NONE',  ( 0.000000000000000000, 0.000000000000000000, -1.000000000000000000 ) ) ;
#859 = ORIENTED_EDGE ( 'NONE', *, *, #751, .F. ) ;
#860 = CARTESIAN_POINT ( 'NONE',  ( 0.000000000000000000, 1.299999999999995604, 0.000000000000000000 ) ) ;
#861 = EDGE_CURVE ( 'NONE', #938, #532, #963, .T. ) ;
#862 = DIRECTION ( 'NONE',  ( 0.000000000000000000, 0.000000000000000000, -1.000000000000000000 ) ) ;
#863 = VERTEX_POINT ( 'NONE', #876 ) ;
#864 = CARTESIAN_POINT ( 'NONE',  ( 2.500000000000007994, 0.000000000000000000, -7.071067811865486163 ) ) ;
#865 = ORIENTED_EDGE ( 'NONE', *, *, #231, .F. ) ;
#866 = ORIENTED_EDGE ( 'NONE', *, *, #733, .T. ) ;
#867 = CARTESIAN_POINT ( 'NONE',  ( 0.000000000000000000, 1.000000000000014655, -35.49999999999998579 ) ) ;
#868 = DIRECTION ( 'NONE',  ( 0.000000000000000000, 0.000000000000000000, -1.000000000000000000 ) ) ;
#869 = EDGE_CURVE ( 'NONE', #938, #763, #257, .T. ) ;
#870 = DIRECTION ( 'NONE',  ( 0.000000000000000000, 0.000000000000000000, -1.000000000000000000 ) ) ;
#871 = PRESENTATION_STYLE_ASSIGNMENT (( #923 ) ) ;
#872 = DIRECTION ( 'NONE',  ( 0.000000000000000000, -1.000000000000000000, 0.000000000000000000 ) ) ;
#873 = DIRECTION ( 'NONE',  ( -1.224646799147353454E-16, 0.000000000000000000, -1.000000000000000000 ) ) ;
#874 = MECHANICAL_DESIGN_GEOMETRIC_PRESENTATION_REPRESENTATION (  '', ( #665 ), #784 ) ;
#875 = AXIS2_PLACEMENT_3D ( 'NONE', #74, #294, #954 ) ;
#876 = CARTESIAN_POINT ( 'NONE',  ( 0.000000000000000000, 0.5000000000000004441, -35.40455414586600114 ) ) ;
#877 = AXIS2_PLACEMENT_3D ( 'NONE', #937, #652, #446 ) ;
#878 = ORIENTED_EDGE ( 'NONE', *, *, #127, .T. ) ;
#879 = ADVANCED_FACE ( 'NONE', ( #801 ), #393, .F. ) ;
#880 = DIRECTION ( 'NONE',  ( 0.000000000000000000, -1.000000000000000000, 0.000000000000000000 ) ) ;
#881 = ORIENTED_EDGE ( 'NONE', *, *, #319, .F. ) ;
#882 = VERTEX_POINT ( 'NONE', #189 ) ;
#883 = CARTESIAN_POINT ( 'NONE',  ( 0.000000000000000000, 1.299999999999995604, -0.6999999999999999556 ) ) ;
#884 = EDGE_CURVE ( 'NONE', #5, #187, #138, .T. ) ;
#885 = CARTESIAN_POINT ( 'NONE',  ( 0.000000000000000000, 0.5000000000000004441, -8.000000000000000000 ) ) ;
#886 = AXIS2_PLACEMENT_3D ( 'NONE', #91, #850, #7 ) ;
#887 = ORIENTED_EDGE ( 'NONE', *, *, #897, .F. ) ;
#888 = EDGE_CURVE ( 'NONE', #908, #63, #340, .T. ) ;
#889 = AXIS2_PLACEMENT_3D ( 'NONE', #700, #789, #121 ) ;
#890 =( NAMED_UNIT ( * ) PLANE_ANGLE_UNIT ( ) SI_UNIT ( $, .RADIAN. ) );
#891 = VECTOR ( 'NONE', #547, 1000.000000000000000 ) ;
#892 = ORIENTED_EDGE ( 'NONE', *, *, #225, .T. ) ;
#893 = ADVANCED_FACE ( 'NONE', ( #709, #723 ), #40, .T. ) ;
#894 =( LENGTH_UNIT ( ) NAMED_UNIT ( * ) SI_UNIT ( .MILLI., .METRE. ) );
#895 = LINE ( 'NONE', #248, #526 ) ;
#896 = ORIENTED_EDGE ( 'NONE', *, *, #69, .F. ) ;
#897 = EDGE_CURVE ( 'NONE', #25, #705, #120, .T. ) ;
#898 = DIRECTION ( 'NONE',  ( 0.000000000000000000, -1.000000000000000000, 0.000000000000000000 ) ) ;
#899 = ORIENTED_EDGE ( 'NONE', *, *, #20, .F. ) ;
#900 = AXIS2_PLACEMENT_3D ( 'NONE', #655, #492, #124 ) ;
#901 = ORIENTED_EDGE ( 'NONE', *, *, #869, .T. ) ;
#902 = AXIS2_PLACEMENT_3D ( 'NONE', #253, #776, #807 ) ;
#903 =( LENGTH_UNIT ( ) NAMED_UNIT ( * ) SI_UNIT ( .MILLI., .METRE. ) );
#904 = CARTESIAN_POINT ( 'NONE',  ( 0.000000000000000000, 1.500000000000001332, 0.000000000000000000 ) ) ;
#905 = EDGE_CURVE ( 'NONE', #203, #232, #177, .T. ) ;
#906 = EDGE_LOOP ( 'NONE', ( #59, #814, #738, #23 ) ) ;
#907 = ORIENTED_EDGE ( 'NONE', *, *, #345, .F. ) ;
#908 = VERTEX_POINT ( 'NONE', #574 ) ;
#909 = LINE ( 'NONE', #399, #423 ) ;
#910 = DIRECTION ( 'NONE',  ( 0.000000000000000000, 0.000000000000000000, -1.000000000000000000 ) ) ;
#911 = CARTESIAN_POINT ( 'NONE',  ( 0.000000000000000000, -29.69715421864641769, 0.000000000000000000 ) ) ;
#912 = EDGE_CURVE ( 'NONE', #180, #763, #950, .T. ) ;
#913 = ORIENTED_EDGE ( 'NONE', *, *, #656, .F. ) ;
#914 = EDGE_CURVE ( 'NONE', #882, #441, #284, .T. ) ;
#915 = CARTESIAN_POINT ( 'NONE',  ( 8.572527594031471957E-17, 0.5000000000000004441, 0.6999999999999999556 ) ) ;
#916 = ORIENTED_EDGE ( 'NONE', *, *, #656, .T. ) ;
#917 = DIRECTION ( 'NONE',  ( 0.000000000000000000, 0.000000000000000000, 1.000000000000000000 ) ) ;
#918 = SURFACE_STYLE_FILL_AREA ( #420 ) ;
#919 = CARTESIAN_POINT ( 'NONE',  ( 35.40455414586600114, 0.5000000000000004441, -3.009169851535451557E-33 ) ) ;
#920 = AXIS2_PLACEMENT_3D ( 'NONE', #453, #661, #376 ) ;
#921 = AXIS2_PLACEMENT_3D ( 'NONE', #730, #126, #945 ) ;
#922 = VERTEX_POINT ( 'NONE', #353 ) ;
#923 = SURFACE_STYLE_USAGE ( .BOTH. , #181 ) ;
#924 = LINE ( 'NONE', #88, #891 ) ;
#925 = FACE_OUTER_BOUND ( 'NONE', #409, .T. ) ;
#926 = ORIENTED_EDGE ( 'NONE', *, *, #283, .T. ) ;
#927 = DIRECTION ( 'NONE',  ( 0.000000000000000000, -1.000000000000000000, 0.000000000000000000 ) ) ;
#928 = CARTESIAN_POINT ( 'NONE',  ( 2.500000000000007550, 1.500000000000001332, 7.599342076785342570 ) ) ;
#929 = DIRECTION ( 'NONE',  ( 0.000000000000000000, -1.000000000000000000, 0.000000000000000000 ) ) ;
#930 = ADVANCED_FACE ( 'NONE', ( #735 ), #647, .F. ) ;
#931 = EDGE_CURVE ( 'NONE', #187, #686, #33, .T. ) ;
#932 = CARTESIAN_POINT ( 'NONE',  ( 0.000000000000000000, 0.000000000000000000, 0.000000000000000000 ) ) ;
#933 = ORIENTED_EDGE ( 'NONE', *, *, #304, .F. ) ;
#934 = CIRCLE ( 'NONE', #337, 36.50000000000000000 ) ;
#935 = AXIS2_PLACEMENT_3D ( 'NONE', #557, #28, #480 ) ;
#936 = DIRECTION ( 'NONE',  ( 0.000000000000000000, 1.000000000000000000, 0.000000000000000000 ) ) ;
#937 = CARTESIAN_POINT ( 'NONE',  ( 0.000000000000000000, 0.000000000000000000, 0.000000000000000000 ) ) ;
#938 = VERTEX_POINT ( 'NONE', #220 ) ;
#939 = DIRECTION ( 'NONE',  ( 1.000000000000000000, 0.000000000000000000, -1.224646799147353207E-16 ) ) ;
#940 = ORIENTED_EDGE ( 'NONE', *, *, #912, .T. ) ;
#941 = CARTESIAN_POINT ( 'NONE',  ( 9.797174393178825657E-16, 0.000000000000000000, 8.000000000000000000 ) ) ;
#942 = CARTESIAN_POINT ( 'NONE',  ( 0.000000000000000000, 1.500000000000001332, 0.000000000000000000 ) ) ;
#943 = LINE ( 'NONE', #787, #45 ) ;
#944 = FACE_OUTER_BOUND ( 'NONE', #521, .T. ) ;
#945 = DIRECTION ( 'NONE',  ( 0.000000000000000000, 0.000000000000000000, -1.000000000000000000 ) ) ;
#946 = CARTESIAN_POINT ( 'NONE',  ( 35.50000000000007816, 1.000000000000000888, -3.794707603699265519E-16 ) ) ;
#947 = AXIS2_PLACEMENT_3D ( 'NONE', #287, #114, #503 ) ;
#948 = VECTOR ( 'NONE', #454, 1000.000000000000000 ) ;
#949 = SURFACE_STYLE_USAGE ( .BOTH. , #531 ) ;
#950 = CIRCLE ( 'NONE', #440, 35.50000000000000000 ) ;
#951 = ADVANCED_FACE ( 'NONE', ( #385, #465 ), #150, .T. ) ;
#952 = ORIENTED_EDGE ( 'NONE', *, *, #328, .F. ) ;
#953 = EDGE_CURVE ( 'NONE', #478, #847, #822, .T. ) ;
#954 = DIRECTION ( 'NONE',  ( 0.000000000000000000, 0.000000000000000000, -1.000000000000000000 ) ) ;
#955 = DIRECTION ( 'NONE',  ( 0.000000000000000000, 0.000000000000000000, -1.000000000000000000 ) ) ;
#956 = DIRECTION ( 'NONE',  ( 0.000000000000000000, 1.000000000000000000, 0.000000000000000000 ) ) ;
#957 = CARTESIAN_POINT ( 'NONE',  ( 0.000000000000000000, 0.5000000000000004441, 0.000000000000000000 ) ) ;
#958 = CARTESIAN_POINT ( 'NONE',  ( 8.000000000000000000, 1.500000000000001332, -3.009169851535451557E-33 ) ) ;
#959 = DIRECTION ( 'NONE',  ( 0.000000000000000000, 0.000000000000000000, -1.000000000000000000 ) ) ;
#960 = CARTESIAN_POINT ( 'NONE',  ( -2.500000000000007550, 0.5000000000000004441, -7.071067811865485275 ) ) ;
#961 = VECTOR ( 'NONE', #623, 1000.000000000000000 ) ;
#962 = ORIENTED_EDGE ( 'NONE', *, *, #1, .T. ) ;
#963 = CIRCLE ( 'NONE', #131, 18.92814800674211284 ) ;
#964 = CARTESIAN_POINT ( 'NONE',  ( 0.000000000000000000, 0.000000000000000000, -36.50000000000000000 ) ) ;
ENDSEC;
END-ISO-10303-21;
