ISO-10303-21;
HEADER;
FILE_DESCRIPTION (( 'STEP AP214' ),
    '1' );
FILE_NAME ('Part_3--Cork.STEP',
    '2026-08-27T02:33:37',
    ( '' ),
    ( '' ),
    'SwSTEP 2.0',
    'SolidWorks 2021',
    '' );
FILE_SCHEMA (( 'AUTOMOTIVE_DESIGN' ));
ENDSEC;

DATA;
#1 = SURFACE_SIDE_STYLE ('',( #89 ) ) ;
#2 = ORIENTED_EDGE ( 'NONE', *, *, #127, .T. ) ;
#3 = DIRECTION ( 'NONE',  ( 1.110223024625153212E-16, 0.000000000000000000, -1.000000000000000000 ) ) ;
#4 = DIRECTION ( 'NONE',  ( 0.000000000000000000, 0.000000000000000000, 1.000000000000000000 ) ) ;
#5 = CARTESIAN_POINT ( 'NONE',  ( 5.265625000000014211, 1.500000000000001332, -5.340710941379928300 ) ) ;
#6 = CARTESIAN_POINT ( 'NONE',  ( 7.771561172376092825E-17, 0.7999999999999951594, -0.7000000000000018430 ) ) ;
#7 = ADVANCED_FACE ( 'NONE', ( #174 ), #255, .T. ) ;
#8 = CARTESIAN_POINT ( 'NONE',  ( 8.581783089164982967E-17, 0.000000000000000000, 7.500000000000000000 ) ) ;
#9 = ORIENTED_EDGE ( 'NONE', *, *, #38, .F. ) ;
#10 = DIRECTION ( 'NONE',  ( 0.000000000000000000, -1.000000000000000000, 0.000000000000000000 ) ) ;
#11 = ORIENTED_EDGE ( 'NONE', *, *, #45, .F. ) ;
#12 = PLANE ( 'NONE',  #113 ) ;
#13 = DIRECTION ( 'NONE',  ( 0.000000000000000000, 1.000000000000000000, 0.000000000000000000 ) ) ;
#14 = AXIS2_PLACEMENT_3D ( 'NONE', #318, #159, #120 ) ;
#15 = AXIS2_PLACEMENT_3D ( 'NONE', #248, #352, #83 ) ;
#16 = DIRECTION ( 'NONE',  ( 1.110223024625153336E-16, 0.000000000000000000, -1.000000000000000000 ) ) ;
#17 = EDGE_CURVE ( 'NONE', #335, #212, #66, .T. ) ;
#18 = SURFACE_STYLE_USAGE ( .BOTH. , #269 ) ;
#19 = VERTEX_POINT ( 'NONE', #303 ) ;
#20 = AXIS2_PLACEMENT_3D ( 'NONE', #330, #88, #170 ) ;
#21 = PRESENTATION_LAYER_ASSIGNMENT (  '', '', ( #188 ) ) ;
#22 = ADVANCED_FACE ( 'NONE', ( #116, #306 ), #280, .T. ) ;
#23 =( NAMED_UNIT ( * ) SI_UNIT ( $, .STERADIAN. ) SOLID_ANGLE_UNIT ( ) );
#24 = DIRECTION ( 'NONE',  ( 0.000000000000000000, -1.000000000000000000, 0.000000000000000000 ) ) ;
#25 = ADVANCED_FACE ( 'NONE', ( #140 ), #225, .T. ) ;
#26 = FILL_AREA_STYLE ('',( #279 ) ) ;
#27 = CARTESIAN_POINT ( 'NONE',  ( 0.000000000000000000, 1.500000000000001332, 0.000000000000000000 ) ) ;
#28 = APPLICATION_PROTOCOL_DEFINITION ( 'draft international standard', 'automotive_design', 1998, #158 ) ;
#29 = AXIS2_PLACEMENT_3D ( 'NONE', #234, #164, #137 ) ;
#30 = DIRECTION ( 'NONE',  ( 0.000000000000000000, 1.000000000000000000, 0.000000000000000000 ) ) ;
#31 = DIRECTION ( 'NONE',  ( 0.000000000000000000, -1.000000000000000000, 0.000000000000000000 ) ) ;
#32 = APPLICATION_CONTEXT ( 'automotive_design' ) ;
#33 = DIRECTION ( 'NONE',  ( -1.110223024625153336E-16, 0.000000000000000000, 1.000000000000000000 ) ) ;
#34 =( GEOMETRIC_REPRESENTATION_CONTEXT ( 3 ) GLOBAL_UNCERTAINTY_ASSIGNED_CONTEXT ( ( #328 ) ) GLOBAL_UNIT_ASSIGNED_CONTEXT ( ( #221, #144, #23 ) ) REPRESENTATION_CONTEXT ( 'NONE', 'WORKASPACE' ) );
#35 = ORIENTED_EDGE ( 'NONE', *, *, #340, .F. ) ;
#36 = DIRECTION ( 'NONE',  ( 0.000000000000000000, -1.000000000000000000, 0.000000000000000000 ) ) ;
#37 = ORIENTED_EDGE ( 'NONE', *, *, #81, .F. ) ;
#38 = EDGE_CURVE ( 'NONE', #265, #176, #271, .T. ) ;
#39 = CYLINDRICAL_SURFACE ( 'NONE', #163, 6.000000000000020428 ) ;
#40 = EDGE_LOOP ( 'NONE', ( #249, #2 ) ) ;
#41 = EDGE_CURVE ( 'NONE', #335, #80, #58, .T. ) ;
#42 = CARTESIAN_POINT ( 'NONE',  ( 0.000000000000000000, 1.500000000000001332, 0.000000000000000000 ) ) ;
#43 = ORIENTED_EDGE ( 'NONE', *, *, #183, .T. ) ;
#44 = CYLINDRICAL_SURFACE ( 'NONE', #226, 7.500000000000021316 ) ;
#45 = EDGE_CURVE ( 'NONE', #311, #281, #142, .T. ) ;
#46 = FILL_AREA_STYLE ('',( #325 ) ) ;
#47 = CIRCLE ( 'NONE', #14, 7.500000000000021316 ) ;
#48 = VECTOR ( 'NONE', #266, 1000.000000000000000 ) ;
#49 = DIRECTION ( 'NONE',  ( 0.000000000000000000, -1.000000000000000000, 0.000000000000000000 ) ) ;
#50 = EDGE_CURVE ( 'NONE', #176, #265, #298, .T. ) ;
#51 = CARTESIAN_POINT ( 'NONE',  ( 0.000000000000000000, 1.500000000000001332, 0.000000000000000000 ) ) ;
#52 = CARTESIAN_POINT ( 'NONE',  ( 5.265625000000015099, 0.1000000000000028644, 5.340710941379915866 ) ) ;
#53 = PRODUCT ( 'Part_3--Cork', 'Part_3--Cork', '', ( #327 ) ) ;
#54 = AXIS2_PLACEMENT_3D ( 'NONE', #272, #228, #297 ) ;
#55 = EDGE_CURVE ( 'NONE', #335, #212, #171, .T. ) ;
#56 = ORIENTED_EDGE ( 'NONE', *, *, #267, .T. ) ;
#57 = CARTESIAN_POINT ( 'NONE',  ( 7.500000000000026645, 0.000000000000000000, -3.604920367715554414E-15 ) ) ;
#58 = LINE ( 'NONE', #231, #118 ) ;
#59 = CARTESIAN_POINT ( 'NONE',  ( 8.581783089165008851E-17, 0.000000000000000000, 7.500000000000021316 ) ) ;
#60 = VECTOR ( 'NONE', #333, 1000.000000000000000 ) ;
#61 = ORIENTED_EDGE ( 'NONE', *, *, #322, .F. ) ;
#62 = PRESENTATION_STYLE_ASSIGNMENT (( #230 ) ) ;
#63 = ORIENTED_EDGE ( 'NONE', *, *, #45, .T. ) ;
#64 = DIRECTION ( 'NONE',  ( 0.000000000000000000, -1.000000000000000000, 0.000000000000000000 ) ) ;
#65 = ORIENTED_EDGE ( 'NONE', *, *, #107, .T. ) ;
#66 = CIRCLE ( 'NONE', #334, 6.000000000000018652 ) ;
#67 = CIRCLE ( 'NONE', #29, 6.000000000000020428 ) ;
#68 = ADVANCED_FACE ( 'NONE', ( #341 ), #73, .F. ) ;
#69 = DIRECTION ( 'NONE',  ( 1.110223024625153212E-16, 0.000000000000000000, -1.000000000000000000 ) ) ;
#70 = AXIS2_PLACEMENT_3D ( 'NONE', #215, #268, #165 ) ;
#71 = LINE ( 'NONE', #149, #155 ) ;
#72 = ORIENTED_EDGE ( 'NONE', *, *, #183, .F. ) ;
#73 = CYLINDRICAL_SURFACE ( 'NONE', #193, 0.7000000000000019540 ) ;
#74 = VERTEX_POINT ( 'NONE', #125 ) ;
#75 = FACE_OUTER_BOUND ( 'NONE', #202, .T. ) ;
#76 = VERTEX_POINT ( 'NONE', #235 ) ;
#77 = CARTESIAN_POINT ( 'NONE',  ( 0.7000000000000035083, 0.7999999999999951594, -2.705319851338943032E-17 ) ) ;
#78 = PRODUCT_DEFINITION ( 'UNKNOWN', '', #148, #117 ) ;
#79 = CARTESIAN_POINT ( 'NONE',  ( 8.009664216554007029E-18, 0.000000000000000000, 0.7000000000000019540 ) ) ;
#80 = VERTEX_POINT ( 'NONE', #312 ) ;
#81 = EDGE_CURVE ( 'NONE', #239, #169, #91, .T. ) ;
#82 = AXIS2_PLACEMENT_3D ( 'NONE', #92, #36, #206 ) ;
#83 = DIRECTION ( 'NONE',  ( 1.110223024625153336E-16, 0.000000000000000000, -1.000000000000000000 ) ) ;
#84 = FACE_OUTER_BOUND ( 'NONE', #332, .T. ) ;
#85 = ORIENTED_EDGE ( 'NONE', *, *, #360, .T. ) ;
#86 = EDGE_CURVE ( 'NONE', #347, #212, #98, .T. ) ;
#87 = COLOUR_RGB ( '',1.000000000000000000, 1.000000000000000000, 1.000000000000000000 ) ;
#88 = DIRECTION ( 'NONE',  ( 0.000000000000000000, 1.000000000000000000, 0.000000000000000000 ) ) ;
#89 = SURFACE_STYLE_FILL_AREA ( #26 ) ;
#90 = ORIENTED_EDGE ( 'NONE', *, *, #340, .T. ) ;
#91 = CIRCLE ( 'NONE', #214, 7.500000000000021316 ) ;
#92 = CARTESIAN_POINT ( 'NONE',  ( 0.000000000000000000, 0.000000000000000000, 0.000000000000000000 ) ) ;
#93 = EDGE_CURVE ( 'NONE', #74, #19, #124, .T. ) ;
#94 = DIRECTION ( 'NONE',  ( -0.000000000000000000, -1.000000000000000000, -0.000000000000000000 ) ) ;
#95 = EDGE_CURVE ( 'NONE', #76, #286, #147, .T. ) ;
#96 = DIRECTION ( 'NONE',  ( 0.000000000000000000, 1.000000000000000000, 0.000000000000000000 ) ) ;
#97 = EDGE_LOOP ( 'NONE', ( #63, #301 ) ) ;
#98 = LINE ( 'NONE', #179, #251 ) ;
#99 = ORIENTED_EDGE ( 'NONE', *, *, #95, .T. ) ;
#100 = CARTESIAN_POINT ( 'NONE',  ( -5.265625000000017764, 0.1000000000000028644, -5.340710941379930965 ) ) ;
#101 = CARTESIAN_POINT ( 'NONE',  ( 0.000000000000000000, 0.000000000000000000, 0.000000000000000000 ) ) ;
#102 = ORIENTED_EDGE ( 'NONE', *, *, #321, .F. ) ;
#103 = LINE ( 'NONE', #59, #60 ) ;
#104 = EDGE_CURVE ( 'NONE', #76, #281, #71, .T. ) ;
#105 = FACE_OUTER_BOUND ( 'NONE', #313, .T. ) ;
#106 = ORIENTED_EDGE ( 'NONE', *, *, #302, .F. ) ;
#107 = EDGE_CURVE ( 'NONE', #347, #359, #109, .T. ) ;
#108 = CYLINDRICAL_SURFACE ( 'NONE', #15, 7.500000000000021316 ) ;
#109 = CIRCLE ( 'NONE', #204, 7.500000000000021316 ) ;
#110 = DIRECTION ( 'NONE',  ( 0.000000000000000000, -1.000000000000000000, 0.000000000000000000 ) ) ;
#111 = ORIENTED_EDGE ( 'NONE', *, *, #86, .F. ) ;
#112 = PRODUCT_DEFINITION_SHAPE ( 'NONE', 'NONE',  #78 ) ;
#113 = AXIS2_PLACEMENT_3D ( 'NONE', #77, #293, #295 ) ;
#114 = CARTESIAN_POINT ( 'NONE',  ( -8.000000000000042633, 0.1000000000000028644, -3.604920367715554414E-15 ) ) ;
#115 = ORIENTED_EDGE ( 'NONE', *, *, #223, .F. ) ;
#116 = FACE_OUTER_BOUND ( 'NONE', #40, .T. ) ;
#117 = PRODUCT_DEFINITION_CONTEXT ( 'detailed design', #32, 'design' ) ;
#118 = VECTOR ( 'NONE', #30, 1000.000000000000000 ) ;
#119 = AXIS2_PLACEMENT_3D ( 'NONE', #27, #296, #16 ) ;
#120 = DIRECTION ( 'NONE',  ( -1.110223024625153336E-16, 0.000000000000000000, 1.000000000000000000 ) ) ;
#121 = DIRECTION ( 'NONE',  ( 0.000000000000000000, 1.000000000000000000, 0.000000000000000000 ) ) ;
#122 = DIRECTION ( 'NONE',  ( 1.110223024625153336E-16, 0.000000000000000000, -1.000000000000000000 ) ) ;
#123 = ORIENTED_EDGE ( 'NONE', *, *, #55, .F. ) ;
#124 = CIRCLE ( 'NONE', #257, 0.7000000000000020650 ) ;
#125 = CARTESIAN_POINT ( 'NONE',  ( 7.771561172376095290E-17, 0.000000000000000000, -0.7000000000000020650 ) ) ;
#126 = AXIS2_PLACEMENT_3D ( 'NONE', #101, #138, #130 ) ;
#127 = EDGE_CURVE ( 'NONE', #169, #239, #133, .T. ) ;
#128 = FACE_OUTER_BOUND ( 'NONE', #203, .T. ) ;
#129 = ORIENTED_EDGE ( 'NONE', *, *, #360, .F. ) ;
#130 = DIRECTION ( 'NONE',  ( 1.110223024625153212E-16, 0.000000000000000000, -1.000000000000000000 ) ) ;
#131 = ORIENTED_EDGE ( 'NONE', *, *, #278, .F. ) ;
#132 = FACE_OUTER_BOUND ( 'NONE', #316, .T. ) ;
#133 = CIRCLE ( 'NONE', #82, 7.500000000000021316 ) ;
#134 = EDGE_LOOP ( 'NONE', ( #9, #90, #222, #189 ) ) ;
#135 = ADVANCED_FACE ( 'NONE', ( #75 ), #39, .F. ) ;
#136 = DIRECTION ( 'NONE',  ( 1.110223024625153336E-16, 0.000000000000000000, -1.000000000000000000 ) ) ;
#137 = DIRECTION ( 'NONE',  ( 0.000000000000000000, 0.000000000000000000, 1.000000000000000000 ) ) ;
#138 = DIRECTION ( 'NONE',  ( 0.000000000000000000, -1.000000000000000000, 0.000000000000000000 ) ) ;
#139 = APPLICATION_PROTOCOL_DEFINITION ( 'draft international standard', 'automotive_design', 1998, #32 ) ;
#140 = FACE_OUTER_BOUND ( 'NONE', #97, .T. ) ;
#141 = VERTEX_POINT ( 'NONE', #5 ) ;
#142 = CIRCLE ( 'NONE', #310, 6.000000000000020428 ) ;
#143 = CARTESIAN_POINT ( 'NONE',  ( 8.000000000000017764, 0.1000000000000028644, -5.339643843692361508E-15 ) ) ;
#144 =( NAMED_UNIT ( * ) PLANE_ANGLE_UNIT ( ) SI_UNIT ( $, .RADIAN. ) );
#145 = ORIENTED_EDGE ( 'NONE', *, *, #50, .F. ) ;
#146 = DIRECTION ( 'NONE',  ( 0.000000000000000000, 1.000000000000000000, 0.000000000000000000 ) ) ;
#147 = CIRCLE ( 'NONE', #304, 7.500000000000021316 ) ;
#148 = PRODUCT_DEFINITION_FORMATION_WITH_SPECIFIED_SOURCE ( 'ANY', '', #53, .NOT_KNOWN. ) ;
#149 = CARTESIAN_POINT ( 'NONE',  ( 5.265625000000016875, 0.7999999999999951594, 5.340710941379916754 ) ) ;
#150 = ADVANCED_FACE ( 'NONE', ( #128 ), #187, .F. ) ;
#151 = ORIENTED_EDGE ( 'NONE', *, *, #17, .F. ) ;
#152 = CARTESIAN_POINT ( 'NONE',  ( -8.000000000000042633, 0.1000000000000028644, -3.604920367715554414E-15 ) ) ;
#153 = ORIENTED_EDGE ( 'NONE', *, *, #322, .T. ) ;
#154 = CARTESIAN_POINT ( 'NONE',  ( 8.000000000000017764, 0.1000000000000028644, -5.339643843692361508E-15 ) ) ;
#155 = VECTOR ( 'NONE', #236, 1000.000000000000000 ) ;
#156 = DIRECTION ( 'NONE',  ( 1.110223024625153336E-16, 0.000000000000000000, -1.000000000000000000 ) ) ;
#157 = ORIENTED_EDGE ( 'NONE', *, *, #302, .T. ) ;
#158 = APPLICATION_CONTEXT ( 'automotive_design' ) ;
#159 = DIRECTION ( 'NONE',  ( -0.000000000000000000, -1.000000000000000000, -0.000000000000000000 ) ) ;
#160 = ORIENTED_EDGE ( 'NONE', *, *, #50, .T. ) ;
#161 = CARTESIAN_POINT ( 'NONE',  ( -5.265625000000017764, 1.500000000000001332, -5.340710941379930965 ) ) ;
#162 = LINE ( 'NONE', #79, #258 ) ;
#163 = AXIS2_PLACEMENT_3D ( 'NONE', #154, #96, #209 ) ;
#164 = DIRECTION ( 'NONE',  ( 0.000000000000000000, 1.000000000000000000, 0.000000000000000000 ) ) ;
#165 = DIRECTION ( 'NONE',  ( 1.110223024625153212E-16, 0.000000000000000000, -1.000000000000000000 ) ) ;
#166 = LINE ( 'NONE', #191, #208 ) ;
#167 = CARTESIAN_POINT ( 'NONE',  ( 8.326672684688649401E-16, 1.500000000000001332, -7.500000000000000000 ) ) ;
#168 = ORIENTED_EDGE ( 'NONE', *, *, #41, .T. ) ;
#169 = VERTEX_POINT ( 'NONE', #8 ) ;
#170 = DIRECTION ( 'NONE',  ( -1.110223024625153336E-16, 0.000000000000000000, 1.000000000000000000 ) ) ;
#171 = CIRCLE ( 'NONE', #329, 7.500000000000021316 ) ;
#172 = CIRCLE ( 'NONE', #119, 7.500000000000021316 ) ;
#173 = EDGE_LOOP ( 'NONE', ( #99, #85, #37, #106, #254, #61, #353, #242 ) ) ;
#174 = FACE_OUTER_BOUND ( 'NONE', #284, .T. ) ;
#175 = DIRECTION ( 'NONE',  ( 0.000000000000000000, -1.000000000000000000, 0.000000000000000000 ) ) ;
#176 = VERTEX_POINT ( 'NONE', #6 ) ;
#177 = AXIS2_PLACEMENT_3D ( 'NONE', #205, #146, #229 ) ;
#178 = VECTOR ( 'NONE', #326, 1000.000000000000000 ) ;
#179 = CARTESIAN_POINT ( 'NONE',  ( -5.265625000000018652, 0.7999999999999951594, -5.340710941379925636 ) ) ;
#180 = ORIENTED_EDGE ( 'NONE', *, *, #55, .T. ) ;
#181 = DIRECTION ( 'NONE',  ( 0.000000000000000000, -1.000000000000000000, 0.000000000000000000 ) ) ;
#182 = ORIENTED_EDGE ( 'NONE', *, *, #41, .F. ) ;
#183 = EDGE_CURVE ( 'NONE', #80, #347, #336, .T. ) ;
#184 = CARTESIAN_POINT ( 'NONE',  ( 0.000000000000000000, 1.500000000000001332, 0.000000000000000000 ) ) ;
#185 = ORIENTED_EDGE ( 'NONE', *, *, #278, .T. ) ;
#186 = AXIS2_PLACEMENT_3D ( 'NONE', #57, #24, #331 ) ;
#187 = CYLINDRICAL_SURFACE ( 'NONE', #350, 6.000000000000018652 ) ;
#188 = STYLED_ITEM ( 'NONE', ( #62 ), #358 ) ;
#189 = ORIENTED_EDGE ( 'NONE', *, *, #267, .F. ) ;
#190 = LINE ( 'NONE', #247, #48 ) ;
#191 = CARTESIAN_POINT ( 'NONE',  ( 8.326672684688674053E-16, 0.000000000000000000, -7.500000000000021316 ) ) ;
#192 =( NAMED_UNIT ( * ) PLANE_ANGLE_UNIT ( ) SI_UNIT ( $, .RADIAN. ) );
#193 = AXIS2_PLACEMENT_3D ( 'NONE', #343, #263, #69 ) ;
#194 = STYLED_ITEM ( 'NONE', ( #357 ), #354 ) ;
#195 = CARTESIAN_POINT ( 'NONE',  ( 7.771561172376094057E-17, 0.000000000000000000, -0.7000000000000019540 ) ) ;
#196 = ADVANCED_FACE ( 'NONE', ( #207 ), #44, .T. ) ;
#197 = CARTESIAN_POINT ( 'NONE',  ( 8.009664216553983917E-18, 0.7999999999999951594, 0.6999999999999997335 ) ) ;
#198 = ORIENTED_EDGE ( 'NONE', *, *, #93, .F. ) ;
#199 = AXIS2_PLACEMENT_3D ( 'NONE', #213, #121, #240 ) ;
#200 = AXIS2_PLACEMENT_3D ( 'NONE', #51, #13, #323 ) ;
#201 = ORIENTED_EDGE ( 'NONE', *, *, #38, .T. ) ;
#202 = EDGE_LOOP ( 'NONE', ( #237, #11, #153, #292 ) ) ;
#203 = EDGE_LOOP ( 'NONE', ( #275, #151, #168, #43 ) ) ;
#204 = AXIS2_PLACEMENT_3D ( 'NONE', #184, #10, #156 ) ;
#205 = CARTESIAN_POINT ( 'NONE',  ( -8.000000000000042633, 0.1000000000000028644, -3.604920367715554414E-15 ) ) ;
#206 = DIRECTION ( 'NONE',  ( 1.110223024625153336E-16, 0.000000000000000000, -1.000000000000000000 ) ) ;
#207 = FACE_OUTER_BOUND ( 'NONE', #173, .T. ) ;
#208 = VECTOR ( 'NONE', #110, 1000.000000000000000 ) ;
#209 = DIRECTION ( 'NONE',  ( 0.000000000000000000, 0.000000000000000000, 1.000000000000000000 ) ) ;
#210 = EDGE_LOOP ( 'NONE', ( #160, #201 ) ) ;
#211 = DIRECTION ( 'NONE',  ( 0.000000000000000000, -1.000000000000000000, 0.000000000000000000 ) ) ;
#212 = VERTEX_POINT ( 'NONE', #100 ) ;
#213 = CARTESIAN_POINT ( 'NONE',  ( -8.000000000000042633, 1.500000000000001332, -3.604920367715554414E-15 ) ) ;
#214 = AXIS2_PLACEMENT_3D ( 'NONE', #309, #211, #259 ) ;
#215 = CARTESIAN_POINT ( 'NONE',  ( 0.000000000000000000, 0.000000000000000000, 0.000000000000000000 ) ) ;
#216 = EDGE_CURVE ( 'NONE', #311, #281, #47, .T. ) ;
#217 = LINE ( 'NONE', #195, #178 ) ;
#218 = CARTESIAN_POINT ( 'NONE',  ( 0.000000000000000000, 1.500000000000001332, 0.000000000000000000 ) ) ;
#219 = SURFACE_STYLE_FILL_AREA ( #46 ) ;
#220 =( LENGTH_UNIT ( ) NAMED_UNIT ( * ) SI_UNIT ( .MILLI., .METRE. ) );
#221 =( LENGTH_UNIT ( ) NAMED_UNIT ( * ) SI_UNIT ( .MILLI., .METRE. ) );
#222 = ORIENTED_EDGE ( 'NONE', *, *, #308, .T. ) ;
#223 = EDGE_CURVE ( 'NONE', #141, #76, #67, .T. ) ;
#224 =( NAMED_UNIT ( * ) SI_UNIT ( $, .STERADIAN. ) SOLID_ANGLE_UNIT ( ) );
#225 = PLANE ( 'NONE',  #20 ) ;
#226 = AXIS2_PLACEMENT_3D ( 'NONE', #345, #64, #122 ) ;
#227 = CIRCLE ( 'NONE', #70, 0.7000000000000020650 ) ;
#228 = DIRECTION ( 'NONE',  ( 0.000000000000000000, 0.000000000000000000, 1.000000000000000000 ) ) ;
#229 = DIRECTION ( 'NONE',  ( -1.110223024625153336E-16, 0.000000000000000000, 1.000000000000000000 ) ) ;
#230 = SURFACE_STYLE_USAGE ( .BOTH. , #1 ) ;
#231 = CARTESIAN_POINT ( 'NONE',  ( -5.265625000000017764, 0.7999999999999951594, 5.340710941379919419 ) ) ;
#232 = DIRECTION ( 'NONE',  ( 0.000000000000000000, 1.000000000000000000, 0.000000000000000000 ) ) ;
#233 = MECHANICAL_DESIGN_GEOMETRIC_PRESENTATION_REPRESENTATION (  '', ( #188 ), #34 ) ;
#234 = CARTESIAN_POINT ( 'NONE',  ( 8.000000000000017764, 1.500000000000001332, -5.339643843692361508E-15 ) ) ;
#235 = CARTESIAN_POINT ( 'NONE',  ( 5.265625000000015099, 1.500000000000001332, 5.340710941379915866 ) ) ;
#236 = DIRECTION ( 'NONE',  ( -0.000000000000000000, -1.000000000000000000, -0.000000000000000000 ) ) ;
#237 = ORIENTED_EDGE ( 'NONE', *, *, #104, .T. ) ;
#238 = DIRECTION ( 'NONE',  ( 1.110223024625153212E-16, 0.000000000000000000, -1.000000000000000000 ) ) ;
#239 = VERTEX_POINT ( 'NONE', #348 ) ;
#240 = DIRECTION ( 'NONE',  ( 0.000000000000000000, 0.000000000000000000, 1.000000000000000000 ) ) ;
#241 = CYLINDRICAL_SURFACE ( 'NONE', #126, 0.7000000000000019540 ) ;
#242 = ORIENTED_EDGE ( 'NONE', *, *, #104, .F. ) ;
#243 = AXIS2_PLACEMENT_3D ( 'NONE', #250, #31, #3 ) ;
#244 = FACE_OUTER_BOUND ( 'NONE', #210, .T. ) ;
#245 = PLANE ( 'NONE',  #200 ) ;
#246 = ORIENTED_EDGE ( 'NONE', *, *, #107, .F. ) ;
#247 = CARTESIAN_POINT ( 'NONE',  ( 5.265625000000019540, 0.7999999999999951594, -5.340710941379927412 ) ) ;
#248 = CARTESIAN_POINT ( 'NONE',  ( 0.000000000000000000, 0.000000000000000000, 0.000000000000000000 ) ) ;
#249 = ORIENTED_EDGE ( 'NONE', *, *, #81, .T. ) ;
#250 = CARTESIAN_POINT ( 'NONE',  ( 0.000000000000000000, 0.7999999999999951594, 0.000000000000000000 ) ) ;
#251 = VECTOR ( 'NONE', #94, 1000.000000000000000 ) ;
#252 = CIRCLE ( 'NONE', #283, 7.500000000000021316 ) ;
#253 = SHAPE_DEFINITION_REPRESENTATION ( #112, #358 ) ;
#254 = ORIENTED_EDGE ( 'NONE', *, *, #321, .T. ) ;
#255 = PLANE ( 'NONE',  #177 ) ;
#256 = DIRECTION ( 'NONE',  ( 0.000000000000000000, 1.000000000000000000, 0.000000000000000000 ) ) ;
#257 = AXIS2_PLACEMENT_3D ( 'NONE', #315, #290, #238 ) ;
#258 = VECTOR ( 'NONE', #291, 1000.000000000000000 ) ;
#259 = DIRECTION ( 'NONE',  ( 1.110223024625153336E-16, 0.000000000000000000, -1.000000000000000000 ) ) ;
#260 = DIRECTION ( 'NONE',  ( 0.000000000000000000, 0.000000000000000000, 1.000000000000000000 ) ) ;
#261 = DIRECTION ( 'NONE',  ( 0.000000000000000000, 1.000000000000000000, 0.000000000000000000 ) ) ;
#262 = MECHANICAL_DESIGN_GEOMETRIC_PRESENTATION_REPRESENTATION (  '', ( #194 ), #324 ) ;
#263 = DIRECTION ( 'NONE',  ( 0.000000000000000000, -1.000000000000000000, 0.000000000000000000 ) ) ;
#264 = CARTESIAN_POINT ( 'NONE',  ( 0.000000000000000000, 0.1000000000000028644, 0.000000000000000000 ) ) ;
#265 = VERTEX_POINT ( 'NONE', #197 ) ;
#266 = DIRECTION ( 'NONE',  ( 0.000000000000000000, 1.000000000000000000, 0.000000000000000000 ) ) ;
#267 = EDGE_CURVE ( 'NONE', #176, #74, #217, .T. ) ;
#268 = DIRECTION ( 'NONE',  ( 0.000000000000000000, -1.000000000000000000, 0.000000000000000000 ) ) ;
#269 = SURFACE_SIDE_STYLE ('',( #219 ) ) ;
#270 = ORIENTED_EDGE ( 'NONE', *, *, #93, .T. ) ;
#271 = CIRCLE ( 'NONE', #243, 0.7000000000000018430 ) ;
#272 = CARTESIAN_POINT ( 'NONE',  ( 0.000000000000000000, 0.000000000000000000, 0.000000000000000000 ) ) ;
#273 = ORIENTED_EDGE ( 'NONE', *, *, #95, .F. ) ;
#274 =( NAMED_UNIT ( * ) PLANE_ANGLE_UNIT ( ) SI_UNIT ( $, .RADIAN. ) );
#275 = ORIENTED_EDGE ( 'NONE', *, *, #86, .T. ) ;
#276 =( LENGTH_UNIT ( ) NAMED_UNIT ( * ) SI_UNIT ( .MILLI., .METRE. ) );
#277 = EDGE_LOOP ( 'NONE', ( #198, #344 ) ) ;
#278 = EDGE_CURVE ( 'NONE', #286, #80, #172, .T. ) ;
#279 = FILL_AREA_STYLE_COLOUR ( '', #289 ) ;
#280 = PLANE ( 'NONE',  #186 ) ;
#281 = VERTEX_POINT ( 'NONE', #52 ) ;
#282 = CARTESIAN_POINT ( 'NONE',  ( 0.000000000000000000, 0.7999999999999951594, 0.000000000000000000 ) ) ;
#283 = AXIS2_PLACEMENT_3D ( 'NONE', #218, #49, #136 ) ;
#284 = EDGE_LOOP ( 'NONE', ( #300, #123 ) ) ;
#285 = DIRECTION ( 'NONE',  ( 1.110223024625153212E-16, 0.000000000000000000, -1.000000000000000000 ) ) ;
#286 = VERTEX_POINT ( 'NONE', #355 ) ;
#287 = AXIS2_PLACEMENT_3D ( 'NONE', #282, #181, #285 ) ;
#288 = ADVANCED_FACE ( 'NONE', ( #84 ), #241, .F. ) ;
#289 = COLOUR_RGB ( '',1.000000000000000000, 1.000000000000000000, 1.000000000000000000 ) ;
#290 = DIRECTION ( 'NONE',  ( 0.000000000000000000, -1.000000000000000000, 0.000000000000000000 ) ) ;
#291 = DIRECTION ( 'NONE',  ( 0.000000000000000000, -1.000000000000000000, 0.000000000000000000 ) ) ;
#292 = ORIENTED_EDGE ( 'NONE', *, *, #223, .T. ) ;
#293 = DIRECTION ( 'NONE',  ( 0.000000000000000000, -1.000000000000000000, 0.000000000000000000 ) ) ;
#294 = ADVANCED_FACE ( 'NONE', ( #132 ), #108, .T. ) ;
#295 = DIRECTION ( 'NONE',  ( 1.110223024625153336E-16, 0.000000000000000000, -1.000000000000000000 ) ) ;
#296 = DIRECTION ( 'NONE',  ( 0.000000000000000000, -1.000000000000000000, 0.000000000000000000 ) ) ;
#297 = DIRECTION ( 'NONE',  ( 1.000000000000000000, 0.000000000000000000, 0.000000000000000000 ) ) ;
#298 = CIRCLE ( 'NONE', #287, 0.7000000000000018430 ) ;
#299 =( GEOMETRIC_REPRESENTATION_CONTEXT ( 3 ) GLOBAL_UNCERTAINTY_ASSIGNED_CONTEXT ( ( #314 ) ) GLOBAL_UNIT_ASSIGNED_CONTEXT ( ( #276, #274, #224 ) ) REPRESENTATION_CONTEXT ( 'NONE', 'WORKASPACE' ) );
#300 = ORIENTED_EDGE ( 'NONE', *, *, #17, .T. ) ;
#301 = ORIENTED_EDGE ( 'NONE', *, *, #216, .F. ) ;
#302 = EDGE_CURVE ( 'NONE', #359, #239, #166, .T. ) ;
#303 = CARTESIAN_POINT ( 'NONE',  ( 8.009664216553985458E-18, 0.000000000000000000, 0.6999999999999999556 ) ) ;
#304 = AXIS2_PLACEMENT_3D ( 'NONE', #42, #175, #307 ) ;
#305 =( NAMED_UNIT ( * ) SI_UNIT ( $, .STERADIAN. ) SOLID_ANGLE_UNIT ( ) );
#306 = FACE_BOUND ( 'NONE', #277, .T. ) ;
#307 = DIRECTION ( 'NONE',  ( 1.110223024625153336E-16, 0.000000000000000000, -1.000000000000000000 ) ) ;
#308 = EDGE_CURVE ( 'NONE', #19, #74, #227, .T. ) ;
#309 = CARTESIAN_POINT ( 'NONE',  ( 0.000000000000000000, 0.000000000000000000, 0.000000000000000000 ) ) ;
#310 = AXIS2_PLACEMENT_3D ( 'NONE', #143, #232, #342 ) ;
#311 = VERTEX_POINT ( 'NONE', #320 ) ;
#312 = CARTESIAN_POINT ( 'NONE',  ( -5.265625000000017764, 1.500000000000001332, 5.340710941379919419 ) ) ;
#313 = EDGE_LOOP ( 'NONE', ( #72, #131, #273, #115, #102, #246 ) ) ;
#314 = UNCERTAINTY_MEASURE_WITH_UNIT (LENGTH_MEASURE( 1.000000000000000082E-05 ), #276, 'distance_accuracy_value', 'NONE');
#315 = CARTESIAN_POINT ( 'NONE',  ( 0.000000000000000000, 0.000000000000000000, 0.000000000000000000 ) ) ;
#316 = EDGE_LOOP ( 'NONE', ( #129, #185, #182, #180, #111, #65, #157, #319 ) ) ;
#317 = ADVANCED_FACE ( 'NONE', ( #244 ), #12, .T. ) ;
#318 = CARTESIAN_POINT ( 'NONE',  ( 0.000000000000000000, 0.1000000000000028644, 0.000000000000000000 ) ) ;
#319 = ORIENTED_EDGE ( 'NONE', *, *, #127, .F. ) ;
#320 = CARTESIAN_POINT ( 'NONE',  ( 5.265625000000014211, 0.1000000000000028644, -5.340710941379928300 ) ) ;
#321 = EDGE_CURVE ( 'NONE', #359, #141, #252, .T. ) ;
#322 = EDGE_CURVE ( 'NONE', #311, #141, #190, .T. ) ;
#323 = DIRECTION ( 'NONE',  ( -1.110223024625153336E-16, 0.000000000000000000, 1.000000000000000000 ) ) ;
#324 =( GEOMETRIC_REPRESENTATION_CONTEXT ( 3 ) GLOBAL_UNCERTAINTY_ASSIGNED_CONTEXT ( ( #338 ) ) GLOBAL_UNIT_ASSIGNED_CONTEXT ( ( #220, #192, #305 ) ) REPRESENTATION_CONTEXT ( 'NONE', 'WORKASPACE' ) );
#325 = FILL_AREA_STYLE_COLOUR ( '', #87 ) ;
#326 = DIRECTION ( 'NONE',  ( 0.000000000000000000, -1.000000000000000000, 0.000000000000000000 ) ) ;
#327 = PRODUCT_CONTEXT ( 'NONE', #158, 'mechanical' ) ;
#328 = UNCERTAINTY_MEASURE_WITH_UNIT (LENGTH_MEASURE( 1.000000000000000082E-05 ), #221, 'distance_accuracy_value', 'NONE');
#329 = AXIS2_PLACEMENT_3D ( 'NONE', #264, #339, #33 ) ;
#330 = CARTESIAN_POINT ( 'NONE',  ( 8.000000000000017764, 0.1000000000000028644, -5.339643843692361508E-15 ) ) ;
#331 = DIRECTION ( 'NONE',  ( 1.110223024625153336E-16, 0.000000000000000000, -1.000000000000000000 ) ) ;
#332 = EDGE_LOOP ( 'NONE', ( #35, #145, #56, #270 ) ) ;
#333 = DIRECTION ( 'NONE',  ( 0.000000000000000000, -1.000000000000000000, 0.000000000000000000 ) ) ;
#334 = AXIS2_PLACEMENT_3D ( 'NONE', #114, #256, #4 ) ;
#335 = VERTEX_POINT ( 'NONE', #351 ) ;
#336 = CIRCLE ( 'NONE', #199, 6.000000000000018652 ) ;
#337 = PRESENTATION_LAYER_ASSIGNMENT (  '', '', ( #194 ) ) ;
#338 = UNCERTAINTY_MEASURE_WITH_UNIT (LENGTH_MEASURE( 1.000000000000000082E-05 ), #220, 'distance_accuracy_value', 'NONE');
#339 = DIRECTION ( 'NONE',  ( -0.000000000000000000, -1.000000000000000000, -0.000000000000000000 ) ) ;
#340 = EDGE_CURVE ( 'NONE', #265, #19, #162, .T. ) ;
#341 = FACE_OUTER_BOUND ( 'NONE', #134, .T. ) ;
#342 = DIRECTION ( 'NONE',  ( 0.000000000000000000, 0.000000000000000000, 1.000000000000000000 ) ) ;
#343 = CARTESIAN_POINT ( 'NONE',  ( 0.000000000000000000, 0.000000000000000000, 0.000000000000000000 ) ) ;
#344 = ORIENTED_EDGE ( 'NONE', *, *, #308, .F. ) ;
#345 = CARTESIAN_POINT ( 'NONE',  ( 0.000000000000000000, 0.000000000000000000, 0.000000000000000000 ) ) ;
#346 = PRODUCT_RELATED_PRODUCT_CATEGORY ( 'part', '', ( #53 ) ) ;
#347 = VERTEX_POINT ( 'NONE', #161 ) ;
#348 = CARTESIAN_POINT ( 'NONE',  ( 8.326672684688674053E-16, 0.000000000000000000, -7.500000000000021316 ) ) ;
#349 = ADVANCED_FACE ( 'NONE', ( #105 ), #245, .T. ) ;
#350 = AXIS2_PLACEMENT_3D ( 'NONE', #152, #261, #260 ) ;
#351 = CARTESIAN_POINT ( 'NONE',  ( -5.265625000000017764, 0.1000000000000028644, 5.340710941379919419 ) ) ;
#352 = DIRECTION ( 'NONE',  ( 0.000000000000000000, -1.000000000000000000, 0.000000000000000000 ) ) ;
#353 = ORIENTED_EDGE ( 'NONE', *, *, #216, .T. ) ;
#354 = MANIFOLD_SOLID_BREP ( 'Cut-Extrude1', #356 ) ;
#355 = CARTESIAN_POINT ( 'NONE',  ( 8.581783089164982967E-17, 1.500000000000001332, 7.500000000000000000 ) ) ;
#356 = CLOSED_SHELL ( 'NONE', ( #68, #196, #349, #294, #22, #288, #317, #135, #25, #150, #7 ) ) ;
#357 = PRESENTATION_STYLE_ASSIGNMENT (( #18 ) ) ;
#358 = ADVANCED_BREP_SHAPE_REPRESENTATION ( 'Part_3--Cork', ( #354, #54 ), #299 ) ;
#359 = VERTEX_POINT ( 'NONE', #167 ) ;
#360 = EDGE_CURVE ( 'NONE', #286, #169, #103, .T. ) ;
ENDSEC;
END-ISO-10303-21;
